<?xml version="1.0" encoding="utf-8"?>
<!-- Generator: Adobe Illustrator 25.1.0, SVG Export Plug-In . SVG Version: 6.00 Build 0)  -->
<svg version="1.1" id="Layer_1" xmlns="http://www.w3.org/2000/svg" xmlns:xlink="http://www.w3.org/1999/xlink" x="0px" y="0px"
	 viewBox="0 0 339 320" style="enable-background:new 0 0 339 320;" xml:space="preserve">
<style type="text/css">
	.st0{fill:#BA4125;}
	.st1{fill:#2E0A0B;}
</style>
<g id="Group_1" transform="translate(643.786 173.839)">
	<path id="Path_1" class="st0" d="M-493.2-87.2c-1.7-1.2-3.9-1.2-5.5,0c-2.8,1.9-5.8,0.7-8.6,0.6c-4,0-8-1-12,0.2
		c-0.5,0.1-1,0.2-1.1,0.8c-1.9,0.1-3.8-0.4-5.5-1.4c-1-0.5-2.4-1.6-1.9-2.9c0.3-1.5,0.3-2.9,0.1-4.4c0.1-1.3,0-1.7,1.4-1.2
		c0.6,0.3,1.2,0.1,1.5-0.4c0.2-0.3,0.1-0.6-0.2-0.9c-2.5-2.7-1.1-6-1.1-9c0-2.4,1.3-4.9-1.2-7c-1.2-1,0-3.2,1.6-3.9
		c1.4-0.6,2.9,0.2,4.7-0.4c-1.9-1.3-4-1-5.6-1.8c-0.6-0.3-1.7,0.1-1.9-0.9c-0.2-1,0.6-1.4,1.2-2c2.3-1.9,2.1-4.1-0.2-6
		c-0.9-0.7-2.5-2.1-0.6-3c2.6-1.3,0.6-1.9-0.2-2.6c-0.5-0.5-1.4-0.5-1.3-1.5c0.4-1.9,2-3.4,4-3.8c7.4-0.2,14.9,0,22.3,0.4
		c9.1,0.5,18.2,0.9,27.3,2.4c12.7,2,25.1,5.3,37.1,9.9c12.4,4.9,24.1,11.5,34.7,19.5c9.2,7,17,15.5,23.1,25.3
		c7,10.8,12,22.7,15,35.2c2.7,12.7,3.6,25.7,2.7,38.6c0,0.7-0.1,1.3-1,1.5c0.3-7.2,0.3-14.3-1.9-21.2c-0.7-2.3-1.1-4.9-3.4-6.6
		c-0.9-1.1-1.4-2.5-1.5-3.9c-0.1-1.6-0.6-3.1-1.4-4.5c-0.5-1.1-1.3-1-2.1-0.8c-0.9,0.3-0.5,1.2-0.4,1.7c0.7,3.2,1.8,6.3,2.1,9.5
		c0.8,7.2,2.6,14.3,2.4,21.5c0,0.6,0.2,1.3-0.5,1.9c-0.9-16.8-2.4-33.4-13.3-47.2c1,3.4,0.6,7.2,2.5,10.4c1,1.7,0.8,3.6,1.4,5.4
		c1.3,3.3,2.4,6.6,3.4,10c2.5,11.4,3.3,23.2,2.3,34.8c-0.1,0.5-0.3,1-0.7,1.3c0-4.5,0-9,0-13.4c-0.2-6.9-1.1-13.8-2.8-20.5
		c-1.9-9-5.3-17.7-10-25.6c-4-7.2-9.3-13.6-15.6-19c-6.6-5.4-13.2-11.4-21.5-14c-4.1-1.3-7.7-4.3-12.3-4.1c-0.1,0-0.2,0-0.2,0
		c-4.5-2-9.5-2.1-14.3-3.1c-3.1-0.7-6.9-2.8-10.5-0.6c-0.7,0.4-1.7-1-2.9-0.7c0.3,0.4,0.9,0.8,0.8,1.1c-0.1,0.6-0.8,0.6-1.2,0.6
		c-1,0-1.9-0.6-2.4-1.5c-0.8-1.2-2.5-1.5-3.6-0.7c-0.4,0.2-0.6,0.6-0.8,1c-0.5,1.2-1.2,0.7-2,0.6c-1.6-0.4-3.3-0.1-4.7,0.9
		c0.4,0.2,0.8,0.4,1.1,0.5c0.7,0.3,2.1,0.3,1.8,1.4c-0.4,1.3-1.2,0.4-1.9,0c-0.2-0.1-0.5-0.1-0.7,0.1c-2.2,2.9-5.1,1.9-8,1.5
		c-0.6-0.1-1.2,0-1.7,0.4C-490.3-87.7-491.7-87.2-493.2-87.2L-493.2-87.2z"/>
	<path id="Path_2" class="st0" d="M-415.6,88.8c2.2-0.3,2.8-2.4,4.1-3.7c1.7-1.8,3.6-3.4,5.6-5c-0.1,1.5-0.8,2.9-2,3.8
		c-6.4,5.1-11.5,11.6-18,16.6c-6.5,5.1-13.4,9.5-20.4,13.9c-7.8,4.8-16,8.8-24.5,12c-2.2,0.8-4.6-0.9-6.5,1.1
		c-0.2-0.1-0.4-0.3-0.5-0.5c-0.3-0.6,0.2-0.7,0.6-0.8c1.5-0.4,2.9-0.8,4.4-1.2c6.8-2,13.4-4.7,19.6-8.1c9.5-5,18.3-11.3,25.9-18.9
		c6.2-6.1,11.6-12.7,14.9-20.9c2.6-6.9,3.8-14.2,3.7-21.5c0-3.7-1-7.3-0.6-11c0-0.2,0.1-0.4,0-0.5c-2.2-2.2-0.8-5-1.3-7.5
		c-0.4-3-1.2-5.8-2.4-8.6c-1.3-2.5-1.6-5.5-3.7-7.7c-0.9-1-1.1-2.7-1.8-3.9c-1.1-1.9-3.3-2.9-4.3-5c-0.3-0.7-0.6-2.1-2.1-1.7
		c-0.5,0.1-0.5-0.3-0.5-0.8c-0.1-2-0.1-2-2.3-1.9c-0.3,0-0.5-0.1-0.6-0.4c0-0.1,0-0.1,0-0.2c0.3-2.8-1.6-3.7-3.6-5
		c-3-1.9-5.2-4.7-8.5-6.4c-1.4-0.9-2.9-1.6-4.5-1.8c-0.4,0-0.8-0.1-1.2-0.3c-3.9-3.3-8.7-5.5-13.7-6.4c-2.4-0.5-4.7-1.4-7.1-1.8
		c-0.7-0.1-1.4-0.2-1.6,0.5c3.5,0.9,6.7,2.7,10.1,4c4.9,1.8,9.6,4.4,13.7,7.7c0.5,0.4,1.2,0.1,1.6,0.4c0.5,0.3,1.5,0.1,1.3,1.1
		c0,0.4-0.2,0.8-0.5,1.1c-0.6,0.3-1.1-0.3-1.5-0.7c-5.6-4.5-11.9-7.9-18.7-10.1c-8.4-2.9-17.1-4.8-25.9-5.7
		c-2.9-0.3-5.8-0.9-8.7-1.3c0-0.3,1-0.5,0.5-0.6c-3.6-0.4-6.9-1.9-10.4-2.6c-2.2-0.2-4.3-1-6-2.4c-1.3-1.2-0.2-2.4,0.4-3.6
		c0-0.1,0-0.2,0-0.2c-0.9-2.2,0.7-4.6-0.8-6.7c-1-1.5,0-3.4-0.6-5c-1.1-2.7,0.5-5.8-1.4-8.3c0-0.1,0-0.2,0-0.2
		c1.8-2.5-2.2-4.6-0.3-7.1c-2.2-1.7-1.1-4.1-1.5-6.2c-0.4-2.4,0.6-3.6,3-3.6c6.3-0.1,12.5,1.1,18.8,1.1c3.7,0.1,7.4,0.5,11,1.1
		c5,0.7,10,1.7,14.8,3.1c4,1.1,8.1,2,12,3.4c15.5,5.5,29.2,15.1,39.8,27.6c13,15.3,20.9,32.6,21.4,53c0.3,11.4-0.5,22.6-4.1,33.5
		c-3.5,10.5-9.3,19.7-15.6,28.7c-1.1,1.6-2.7,2.8-3.1,4.8c-0.7,0-1.2,0.6-1.2,1.2c0,0,0,0.1,0,0.1c0.9,0,1.1-0.6,1.2-1.3
		c1.2-0.3,2.3-1,3-2C-415.7,89.3-415.2,89.4-415.6,88.8L-415.6,88.8z M-422.6,95.9c0.1-0.2,0.6-0.3,0.1-0.6L-422.6,95.9l-0.1,0.2
		L-422.6,95.9z M-421,93.5c-0.1,0.1-0.3,0.1-0.4,0.2c0,0.1,0.1,0.3,0.1,0.4l0.5-0.3L-421,93.5z"/>
	<path id="Path_3" class="st1" d="M-364.5-5.9c0.9-0.2,1-0.8,1-1.5c1-12.9,0.1-26-2.7-38.6c-2.9-12.5-8-24.4-15-35.2
		c-6.1-9.8-13.9-18.4-23.1-25.3c-10.6-8-22.3-14.6-34.7-19.5c-12-4.6-24.4-7.9-37.1-9.9c-9.1-1.4-18.1-1.8-27.3-2.4
		c-7.4-0.4-14.9-0.6-22.3-0.4c-2,0.3-3.5,1.8-4,3.8c-0.1,1.1,0.8,1.1,1.3,1.5c0.8,0.7,2.8,1.3,0.2,2.6c-1.9,0.9-0.3,2.3,0.6,3
		c2.3,1.9,2.5,4.1,0.2,5.9c-0.7,0.5-1.5,0.9-1.2,2c0.2,1,1.3,0.6,1.9,0.9c1.6,0.9,3.7,0.5,5.6,1.8c-1.8,0.6-3.2-0.2-4.7,0.4
		c-1.6,0.7-2.8,2.8-1.6,3.9c2.5,2.1,1.2,4.6,1.2,7c0,3-1.4,6.2,1.1,9c0.2,0.3,0.4,0.5,0.2,0.9c-0.3,0.5-1,0.7-1.5,0.4
		c-1.3-0.5-1.3-0.1-1.4,1.2c0.2,1.5,0.1,3-0.1,4.4c-0.5,1.3,0.9,2.4,1.9,2.9c1.7,1,3.6,1.4,5.5,1.4l1.3,0.1c0.8,1.2,1.9,0.9,3,0.7
		l7.7,1.1l0.6,1l-4-0.4l-0.6-0.1c-8-0.5-15.8-1.9-23.4-4.4c-8.3-2.6-12.2-8.3-13.4-16.8c-1.7-12.2-4.1-24.3-5.9-36.5
		c-0.6-4.2-1.7-8.4-1.7-12.7c0-1.1-0.3-2.6,1.3-2.9c1.5-0.3,2,0.9,2.4,2c1.9,4.8,5.8,7.2,10.5,8.7c9.1,3,18.6,3.4,28.1,4
		c18.4,1.2,36.9,2.7,54.9,7c19.9,4.5,38.7,12.9,55.2,24.9c15.6,11.4,27.7,26.9,35.1,44.8c0.6,1.5,1.3,3,1.8,4.5c0.3,1.6,1,3,1.9,4.3
		c-0.2-2.2-1.3-4.4,0.2-6.6c1.5-1.8,2.5-3.9,3-6.1c1.1,1.8-0.3,3.4-0.2,4.9c0.9,0.3,0.9-0.7,1.4-0.8c0.7,2.1-0.1,4.4-2,5.6
		c-0.8,0.6-1.3,1.6-1.1,2.7c0.1,0.9,0.9,1.2,1.7,1.1c0.9-0.1,1.7-0.4,1.7-1.5c-0.2-0.8-0.1-1.7,0.1-2.5c0.7-1.2,0.7-3,3.2-1.9
		c1.6,0.7,3.8,0.1,6,0.1c-1,1.9-3.1,2.9-5.2,2.5c-2.2-0.4-3.2,0.3-3.4,2.6c-0.2,1.6-1.6,2.7-3.1,2.6c0,0-0.1,0-0.1,0
		c-1.6-0.2-1.8,0.7-1.3,1.7c2.6,6.1,3.1,12.7,3.8,19.1c1.2,10.8,0.7,21.7-1.5,32.3c-0.4,2.4-1.1,4.7-2.2,6.9
		c-0.3-0.4-0.5-0.9-0.8-1.3c0.2-1.2,0.4-2.4,0.6-3.6c0.6-2.4,1.7-4.8,0.5-7.4l-0.1-0.1L-364.5-5.9z M-363.2-63.2
		c-0.3,0.4-1.2,0.7-0.5,1.2c0.5,0.4,0.7-0.4,0.9-0.8c0.1-0.3,0.5-0.5,0.2-0.8C-363-63.8-363.1-63.5-363.2-63.2z"/>
	<path id="Path_4" class="st0" d="M-545.6,119.5l5,2.1l0,0c2.6,2.6,6.2,3.2,9.5,3.9c0.6,0.1,1.3-0.4,1.5,0.7
		c0.1,0.2,0.4,0.3,0.6,0.3c2.4-1.1,4.1,1.3,6.5,1.2c2.4-0.1,5,1.2,7.5,0.7c3.4-0.6,6.8,0.7,10.1,0.1c1-0.2,2.2,0.6,3-1.1
		c0.5-1.1,1.1,0.7,2.1,0.6c2.9-0.4,5.8-0.9,8.6-1.6c8.4-2,16.6-4.8,24.4-8.4c3.6-1.8,7.1-3.8,10.3-6.1c-13.5,6.4-27,12.5-42.4,13.9
		c0.4-1.1,1.2-0.6,1.7-1c-0.1-0.1-0.2-0.1-0.2-0.1c-5.9,0.1-11.9,0.3-17.9,0c-2.8-0.3-5.5-0.9-8.2-1.6c-2.5-0.5-5-0.7-6.7-3.1
		c-0.5-0.7-0.8,0.3-0.9,0.7c-0.4,1.3-1.1,0.4-1.5,0.2c-0.6-0.4,0.2-0.5,0.3-0.7c0.5-1.2-0.5-1.9-1.1-1.5c-3,1.9-4.1-1-5.8-2.1
		c-0.7-0.5-0.6-1.5-1.9-0.6c-0.8,0.5-3.1-1-3.1-1.7c0.1-1.6-1-2-1.7-2.8c-0.2-0.2-0.9-0.6-0.2-0.8c1.8-0.4,0.5-0.9,0.1-1.3
		c-2.2-2.3-4.7-4.3-6.1-7.3c1.1-2.8,2.7-5.4,4.7-7.7c3.6,5.1,8.5,9.2,14.2,11.9c0,1.4,1.2,1.7,2.1,2.2c5.4,2.6,11.3,4,17.4,4.3
		c6,0.3,11.5-2.6,17.4-2.4c0.8,0,0.2-1.9,1.2-1.5c1.6,0.6,3-0.4,4.5-0.6c-0.2,0.9-0.7,1.7-1.4,2.3c-0.6,0.6,0.1,0.7,0.6,0.8
		c3.8-0.1,7.4-1.4,11.1-2.2c2-0.4,4-1,6-1.6c0.6,0.7,1.1,0.9,1.4-0.2v0.1c4,0.2,8-0.6,11.6-2.3c5-2,10-4,15.1-5.8c2.8-1,5.2-2.9,8-4
		c2.1-0.8,3.2-0.3,2.8,2.1l0-0.1l-0.5,0.6c0,0.6-0.3,1.1-0.9,1.5c-14.5,12.3-30.5,21.8-48.9,26.9c-13.4,4-27.6,4.6-41.3,1.9
		c-7-1.3-13.5-4.1-19.2-8.3C-545.8,119.8-545.7,119.6-545.6,119.5z M-528,118.6l-8.7-3.1l-0.2,0.7
		C-534.1,117.3-531.4,119.1-528,118.6L-528,118.6z M-540.8,113.5c-1.2-0.8-2.1-2.3-3.8-2.3C-543.7,112.5-542.3,113.3-540.8,113.5
		L-540.8,113.5z"/>
	<path id="Path_5" class="st1" d="M-419.1,91.3c0.4-2,2-3.2,3.1-4.8c6.3-9,12.1-18.2,15.6-28.7c3.6-10.9,4.4-22.1,4.1-33.5
		c-0.6-20.4-8.4-37.7-21.4-53c-10.6-12.6-24.3-22.1-39.8-27.6c-3.9-1.4-8-2.3-12-3.4c-4.9-1.3-9.8-2.4-14.8-3.1
		c-3.6-0.6-7.3-1-11-1.1c-6.3,0-12.5-1.2-18.8-1.1c-2.4,0-3.4,1.2-3,3.6c0.3,2.1-0.8,4.6,1.5,6.2c-1.9,2.4,2.1,4.6,0.3,7.1
		c0,0.1,0,0.2,0,0.2c1.9,2.5,0.4,5.6,1.4,8.3c0.6,1.6-0.4,3.6,0.6,5c1.5,2.2,0,4.6,0.8,6.7c0,0.1,0.1,0.2,0,0.2
		c-0.6,1.2-1.7,2.4-0.4,3.6c1.7,1.4,3.8,2.2,6,2.4c3.5,0.6,6.8,2.1,10.4,2.6c0.5,0.1-0.5,0.2-0.5,0.6c-6.4-0.7-12.7-2.1-18.9-3.9
		c-8.1-2.3-12.6-7.6-14-16c-2-11.6-4-23.2-5.7-34.9c-0.1-0.7-0.2-1.5-0.2-2.3c0-0.5,0.1-1,0.7-1.2c0.5-0.2,1.1,0,1.3,0.5
		c2.4,5.3,7.6,5.9,12.3,7.1c8.6,2.3,17.5,3,26.4,3.9c10.2,0.7,20.3,2.4,30.1,5c9.4,2.6,18.5,6.4,26.9,11.4
		c16.4,9.8,28.1,23.7,36.5,40.5c4.2,9,6.7,18.7,7.3,28.6c1.3,16.1-0.7,31.7-7.5,46.4c-3.2,7.2-7.4,13.9-12.4,19.9
		c-0.5,0.6-1.2,1.2-1.3,2.1l0-0.1c-0.4,0-0.6,0.2-0.5,0.6C-416.8,90.4-417.8,91.1-419.1,91.3L-419.1,91.3z"/>
	<path id="Path_6" class="st1" d="M-491.2,111.3c-0.5,0-1.2-0.2-0.6-0.8c0.7-0.6,1.2-1.4,1.4-2.3c-1.6,0.3-2.9,1.2-4.5,0.6
		c-1-0.4-0.3,1.5-1.2,1.5c-5.9-0.2-11.4,2.7-17.4,2.4c-6-0.3-11.9-1.8-17.4-4.3c-1-0.5-2.1-0.8-2.1-2.2c0.6-2,3.1-2.9,3.1-5.2
		c0.9-0.1,1.8-0.3,2-1.4l1.4-2.3c4-2.8,1.9-6.3,1.3-9.7c0.5-0.5,1.9,1.1,1.8-0.6c-0.1-1.2,0.5-1.4,1.2-1.7c1-0.5,1.6-1.6,1.4-2.7
		c-0.1-3.7-0.1-7.4-0.2-11.2c0-0.7,0.2-1.4-0.6-1.7c-1.2-0.5-0.8-1.3-0.4-2.1c1.3-2.2,0.3-4.5-0.2-6.6c-0.3-1.2-0.8-1.6,0.4-2.4
		c0.5-0.5,0.5-1.4,0-1.9c0,0-0.1-0.1-0.1-0.1c-0.9-0.9-1.3,0-1.7,0.6c-1.6,2.6-4.7,3.4-6.2,5.9c-1-0.7-0.3-1.8-0.9-2.4
		c-0.4-2.2,0.6-4.4,2.4-5.7c2.3-1.8,4.4-3.9,6.5-5.9c0.3-0.3,0.9-0.6,0.9-0.8c-0.2-2,1.1-1.8,2.2-1.3c1.2,0.6,1.2,2.2,0.9,3
		c-1.3,4.3-1.5,8.9-0.7,13.3c0.2,1.1-0.9,2.1-0.4,3.6c0.2,0.7-0.3,2-0.4,3c0.5,1.1,1.3,2.1,0.9,3.5c-0.2,0.7,0.2,1.2,1.1,1.2
		c0.1,1,1.2,0.3,1.5,0.9c0.2,0.4,0.5,1.4,1,0.2c0.2-0.5,1.5-1.7-0.5-1.8l0,0.1c1.1,1,1.4-0.2,1.9-0.7c1.3-1.3,3.2-1.6,4.9-0.9
		c1.8,0.7,3,2.3,3.3,4.1c0.1,0.5,0.5,1.5-0.5,1.6c-0.9,0.1-0.5-0.9-0.6-1.4c-0.2-1.5-1.3-2.7-2.7-2.9c-0.9-0.3-2,0.2-2.3,1.1
		c-0.1,0.1-0.1,0.3-0.1,0.5c-0.1,0.8-0.1,1.6,0.8,1.9c1.4,0.5,1.4-1.1,2.1-1.6c1.1,1.4,0.9,3.4-0.5,4.5c0,0-0.1,0.1-0.1,0.1
		c-1.2,1.1-3,1-4.1-0.1c-0.5-0.5-1.3-0.5-1.9-0.1c-0.7,0.5-1.7,0.4-2.3-0.3c0.4-1,2.2-0.8,2-2.2c-0.1-0.1-0.3-0.3-0.3-0.3
		c-0.9,0.7-2.7-0.3-3,1.1c-0.2,1.4,1,2.6,2,3.5c1.7,1.5,4.2,2,6.3,1.1c0.6-0.2,1-0.9,1.8-0.4c-1.5,1.6-3.5,2.8-4.5,5
		c-0.2,0.5-0.7,0.8-0.4,1.4c0.3,0.6,0.6,1.1,1.5,1c1.1-0.2,2.3-0.3,3.5-0.5c4.3-0.7,8.6-0.7,12.9,0.1c1.7,0,3.4,0.6,4.8,1.6
		c-0.5,0.9-1.5,0.5-2,1.2l-2-0.2c-2.3-0.7-4.7-0.7-7,0c-11,1.6-21.1,7-28.6,15.3c2.9,1.2,5.9,2,9,2.5c8.7,1,17.5-0.2,25.6-3.5
		c4.2-1.6,8.6-3,12-6.1c1.9-1,3.7-2.3,5.2-3.8c0.5-0.5,0.8-1.7,1.9-0.9C-480,102.3-485.4,106.9-491.2,111.3z M-512.9,84.6
		c-2.5-0.3-4.9-1.5-6.5-3.5c0.7,2.8-0.4,5.3,0.9,7.7L-512.9,84.6z"/>
	<path id="Path_7" class="st0" d="M-535.6,21.8c0.8-0.8,1.8-1.5,2.1-2.7l-0.1-0.1l0.1-0.1c0.5-0.7,1.6-0.2,1.9-1.1l0,0
		c2.9-2.4,5.8-4.9,8.7-7.3c0.5-0.7,1.4-0.9,2.1-0.6c-1.8,1.1-2.7,2.8-4.4,3.7c-1.7,0.9-2.6,2.7-3.9,4c-5.9,5.7-11.1,12.1-15.5,19
		c-5.4,8.5-7.8,17.9-8.8,27.7c-1,7.8-0.1,15.7,2.6,23c0.7,1.8,1,3.9,3.8,2.5c0.1,0,0.3,0.3,0.5,0.5c-6.7,5.6-14,10.3-21.8,14.2
		c-1.5-0.4-2.8-1.1-4-2c-2.8-2.3-3.1-5.2-1-8.7c0.2,1.2,0.6,1.1,1.5,0.4c1.3-1.2,3-1.8,4.8-1.6c2.6,0.7,5-0.5,7.5-0.3
		c1,0.1-0.2-0.5-0.1-0.8c2.1,0.4,2.9,0,2.2-2.4c-1.7-6.7-2.1-13.6-1.1-20.4c0.1-0.5,0.3-1-0.1-1.4l0,0c0.8-1.2,0.9-2.7,0.5-4.1l0,0
		c-0.1-0.8,0.9-0.7,1.1-1.5c1.5-6,3.7-11.7,6.5-17.2l-0.1,0c0.4-0.2,0.7-0.6,0.5-1.1l0,0.1c0.6-0.1,0.6-0.6,0.5-1.1l0,0.1
		c0.5,0.1,0.5-0.3,0.5-0.6l-0.1,0.1l3-5.3c1.1-1.2,1.8-2.7,2.1-4.4c0.4-1.1,1.6-2.1,0.1-3.2c0.2-0.2,0.7-0.4,0.7-0.6
		c0.2-2.5,1.1-2.1,2.3-0.6c2.2-1.3,3.9-3.3,5-5.6l-0.1,0.1C-535.6,22.4-535.5,22.1-535.6,21.8L-535.6,21.8z M-551.6,91.5
		c-1.5,0-2.8-0.1-4.1,0c-1,0.1-2.1,0.2-0.7,1.5c0.4,0.4,0.2,1.2,1.2,1.3C-555.6,91.5-552.9,92.9-551.6,91.5L-551.6,91.5z"/>
	<path id="Path_8" class="st0" d="M-444.2,93.3c-1-1-2.2-0.4-3.3-0.4c-4.3,0.1-8.5-0.3-12.4-2.6c-4.5-2.8-6.6-9.4-4.1-13.1
		c1.5,0.1,3.2,1.4,4.3-1c0.4-0.8,1.8-0.7,2.7,0c2.5,1.6,5.5,2.3,8.4,1.9c4.8-0.5,9.6-0.9,14.5-1.3c0.7-0.1,0.6-0.4,0.3-0.8
		c4.3-0.8,8.5-2.2,12.5-4.1c0.7-0.3,1.4-0.9,2.3-0.6c-1.8,2.3-3.7,4.5-5.8,6.5c-4.2,4.1-8.6,7.9-13.4,11.3c-0.3-0.2-0.6-0.3-0.9-0.3
		c-6.7,0.3-13.4,0.4-20.4-1.9c2.4,2.3,4.6,3.8,7.4,4c3.4,0.3,6.9,0.4,10.3,0.5C-442.4,92.2-443.2,92.9-444.2,93.3z"/>
	<path id="Path_9" class="st1" d="M-433.8,75.9c0.2,0.4,0.3,0.7-0.3,0.8c-4.8,0.5-9.6,0.8-14.5,1.3c-2.9,0.5-5.9-0.2-8.4-1.9
		c-0.9-0.6-2.3-0.8-2.7,0c-1.1,2.4-2.7,1.2-4.3,1c2.6-6.6,5.9-12.9,9.9-18.8c2.8-4.5,7.3-7.6,12.5-8.6c2.4-0.6,4.9,0,6.8,1.6
		c-1.3,0.2-1.4,1.2-1.4,2.2c0,0.6,0.6,1.2,0.2,1.9c-0.2,0.4-1.1,0.9-0.1,1.3c0.6,0.2,1.1-0.3,1.2-0.9c0.3-1.2,1.2-2.2,1.2-3.5
		c0.5,0.7,1.1,1.2,0.6,2.2c-1.9,3.9-3.6,7.9-5.4,11.9c-0.6,1.1-1.3,2.1-2.2,3c-0.8,0.9-2.1,0.9-2.5-0.3c-1.2-3.3-3.8-3.4-6.5-3
		c-1.7,0.2-4.1,0.2-4.6,2.2c-0.5,2.1,1.2,3.8,2.9,4.9c3.7,2.4,7.8,2.8,12.1,2.8c1,0,2,0,3,0c0.4,0.2,0.8,0.2,1.2-0.1L-433.8,75.9z"
		/>
	<path id="Path_10" class="st0" d="M-476.6,95.7c-1.1-0.8-1.4,0.4-1.9,0.9c-1.5,1.5-3.3,2.8-5.2,3.8c0-3.9-1-5.3-4.7-6.7
		c-1.4-0.5-2.8-0.9-4.3-1.3c0.4-0.7,1.5-0.2,2-1.2c-1.4-1.1-3.1-1.6-4.8-1.6c-4.3-0.8-8.6-0.8-12.9-0.1c-1.1,0.2-2.3,0.3-3.5,0.5
		c-0.9,0.2-1.2-0.3-1.5-1c-0.4-0.7,0.2-0.9,0.4-1.4c0.9-2.2,3-3.4,4.5-5l0.1,0c1.1,0.3,1.4-0.5,1.8-1.2c3-0.6,5.8-2.2,8.8-2.8
		c5.7-1.2,11.6-1.1,17.3,0.3c1.7,0.4,3.3,1.2,4.7,2.2c2.9,1.8,4.1,5.4,2.8,8.6C-473.9,91.9-475.1,93.9-476.6,95.7z M-482.7,82.8
		c-3.4-5.6-8.3-3.3-13.3-2.6c3.9,1.4,7.7,2,11.3,3.3c2.2,0.8,2.4,0.3,9.1,6.3c0.5-0.7,0-1.6,0.3-2.2c0.8-1.4,0.6,1.1,1.2,0.5
		c0.6-4-2.6-5.3-4.8-7.2c-0.9-0.8-2.2,0.6-3.5,0.2C-482.5,81.2-481.9,82.1-482.7,82.8L-482.7,82.8z"/>
	<path id="Path_11" class="st1" d="M-444.2,93.3c1-0.4,1.8-1.1,2.4-2l0,0l0.6-0.4l3-2c4.7-3.4,9.2-7.2,13.4-11.3
		c2.1-2,4.1-4.2,5.8-6.5c0.8-0.6,1.5-1.3,2.1-2c0.5-0.6,0.9-1.4,1.7-1c0.6,0.4,0.5,1.4,0.2,2.1c-1,1.9-1.9,3.9-2.6,6
		c-3.2,8.8-10.2,14.6-16.6,20.9c-0.2,0.2-0.6,0.2-0.9,0.3c0.4-2.4-0.7-2.9-2.8-2.1c-2.8,1-5.1,3-8,4c-5.1,1.8-10.1,3.7-15.1,5.8
		c-3.6,1.7-7.6,2.5-11.6,2.3c0.1-0.7,0.7-0.7,1.1-0.8C-461.9,103.3-452.7,98.8-444.2,93.3z"/>
	<path id="Path_12" class="st0" d="M-530.9,60.7c0.6,0.6-0.1,1.7,0.9,2.4c1.6-2.5,4.7-3.3,6.2-5.9c0.4-0.6,0.8-1.5,1.7-0.6
		c0.6,0.5,0.7,1.3,0.2,1.9c0,0-0.1,0.1-0.1,0.1c-1.1,0.8-0.7,1.3-0.4,2.4c0.5,2,1.5,4.3,0.2,6.6c-0.4,0.8-0.8,1.6,0.4,2.1
		c0.8,0.3,0.6,1.1,0.6,1.7c0.1,3.7,0.1,7.4,0.2,11.2c0.2,1.1-0.4,2.2-1.4,2.7c-0.8,0.4-1.3,0.6-1.2,1.7c0.1,1.6-1.3,0.1-1.8,0.6
		c0.5,3.4,2.7,7-1.3,9.7c-0.6-0.3-1.5-0.6-1.4-1.3c0.4-2.7,0.2-5.5-0.7-8.1c-0.6-1.9-0.1-3.9-1.2-6.4c0,2.3,0,4,0,5.6
		c0.1,2.9,1.8,5.7,0.7,8.8c-0.7,1.4-0.2,3,1.1,3.8c-0.2,1.1-1,1.4-2,1.4c-0.6-12.5-1.3-25-1.1-37.6C-531,62.5-530.9,61.6-530.9,60.7
		z"/>
	<path id="Path_13" class="st1" d="M-568.4,104.5c7.8-3.8,15.2-8.6,21.8-14.2c1.3,0,1.1,0.8,0.8,1.5c-0.4,0.9-0.9,1.7-1.5,2.5
		c-2,2.3-3.6,4.9-4.7,7.7c-1.4,1-3,1.8-4.7,2.4c-0.7-0.3-1.4-0.3-2.1,0.1c-6.1,2.7-12.3,5.4-18.5,7.9c-1.5,0.9-3.2,1.1-4.8,0.5
		C-577.6,110-572.7,107.7-568.4,104.5z"/>
	<path id="Path_14" class="st0" d="M-377.8,28.7c1.4,1.4-0.4,2.7,0.8,4l2.4-3.4c1.1,0.9,0.1,1.8,0.3,2.8l1.6-2.3
		c1,0.6,0.5,1.2,0.3,1.7c-3.7,9-8.5,17.5-14.1,25.5c-4.1,6.1-8.6,12-13.3,17.7c-1.3,1.6-3.2,2.5-4.1,4.5c-0.2,0.4-0.6,0.5-0.9,0.4
		c0,0-0.1,0-0.1-0.1c-0.5-0.3-0.2-0.8,0.1-1.1c1.2-1.4,2.3-2.9,3.5-4.3c6.2-7,11.7-14.7,16.2-23c1.3-2.4,1.3-5.5,2.5-8.1
		C-380.9,38.4-379.2,33.6-377.8,28.7z M-380.9,41.7c2.1-2.3,2.7-5.2,3.3-8C-379.7,35.9-379.9,39-380.9,41.7z M-384,48.1
		c0,0.1-0.1,0.1-0.1,0.2c0,0.1,0.1,0.1,0.1,0.2c0-0.1,0.1-0.1,0.1-0.2S-384,48.1-384,48.1L-384,48.1z"/>
	<path id="Path_15" class="st0" d="M-493.6,132.4c0-1,0.5-1.6,2-1.6c6.5,0.1,13.1,0,19.6,0c8.8,0,17.7,0,26.5,0
		c9.6,0,19.1-0.1,28.7-0.1c1.2-0.1,2.4,0.1,3.5,0.7c-1.1,0.9-2.5,1.4-4,1.3c-7.4-0.1-14.8-0.2-22.1-0.4c-3.1,0.2-6.2,0.1-9.3-0.1
		c-0.2,0-0.6-0.1-0.7,0c-2.4,2.8-5.1,0.6-7.7,0.6c-5.4,0.2-10.7-0.6-16.1-0.4c-3.9,0.2-7.9-0.1-11.9-0.1
		C-487.9,132.4-490.7,132.4-493.6,132.4z"/>
	<path id="Path_16" class="st0" d="M-582,113c1.6,0.5,3.4,0.3,4.8-0.5c6.2-2.6,12.3-5.2,18.5-7.9c0.6-0.4,1.4-0.4,2.1-0.1
		c-4.4,3-8.9,5.8-13.6,8.4c-0.2,0.1-0.5,0.5-0.6,0.4c-2-1.3-2.1,0.9-3,1.6c-0.1,0-0.1,0.1-0.1,0.2c0-0.1-0.1-0.2-0.1-0.3
		c0.7-0.2,1.7-0.7,1.1-1.4c-0.7-0.8-1.5-0.1-1.9,0.7c-1.7-0.5-2.7,1-4.1,1.4c-4.1,1.4-8.3,2.8-12.3,4.4c-2,0.8-3.6,2.7-5.9,3.1h0
		C-592.4,119.3-587.3,115.9-582,113z"/>
	<path id="Path_17" class="st0" d="M-365.6,5.4c0.3,0.4,0.5,0.9,0.8,1.3c-1.2,4.4-2.4,8.9-3.6,13.3c-0.6-0.5-0.9-1.5-1.8-1.7
		c-1.3-0.2-1.5-0.9-1.2-2c0.1-0.5,0.3-1-0.4-1.1c-0.6-0.1-1.2-0.2-1.4,0.6c-0.2,0.5-0.5,1-0.4,1.4c0.6,3.4-1.9,5.9-2.7,8.9
		c1.9-7.7,3.3-15.5,4.9-23.3c-0.4,2.9-0.7,5.9-1.1,8.8c-0.1,1.1-0.7,2.2,1,2.5s1.1-1.1,1.4-1.8c2.3-6,2.5-12.5,3.6-18.8
		c0.6-3.5,0.1-7.3,0.1-11c2,3.9,0.5,7.8,0.3,11.7c-0.1,1,0,1.9,0.9,1.9c1,0.1,1-0.9,0.7-1.7c1.1,2.6,0,5-0.5,7.4
		c-0.1-0.3-0.1-0.7-0.1-1c0-0.9,0.1-2-0.8-2.1c-1.2-0.1-0.9,1.3-0.9,1.9c-0.5,4.5-1.3,8.9-2.4,13.3c-0.2,0.6-0.9,1.6,0.3,1.9
		c1,0.3,1.1-0.7,1.4-1.4C-366.6,11.5-366,8.4-365.6,5.4z"/>
	<path id="Path_18" class="st1" d="M-361.2-73.3c5.5,3.1,10.8,2.4,16.2-0.7c-1.4,0.5-2.2-0.8-2.6-1.4c-1.2-1.7-1.8,1.2-2.5,0.2
		c-0.8-1.2-1.4-1.8-2.6,0c-0.4-1.7,0.2-3.4,1.5-4.5c1.4-0.8,3.1-0.6,4.2,0.5c1.1,0.7,2.3,1.3,3.5,1.9c2.9,1.7,2.9,2.3,0.8,5.1
		c2.6,0.6,2.9,1.2,2,3.7c-1,3-3.8,3.6-6.1,4.7l-0.8-0.3c1.9-1.2,3.8-2.4,5.6-3.7c0.5-0.4,1.1-0.9,0.8-1.7c-0.3-0.7-1.1-0.2-1.5-0.4
		c-3.7-1.6-6.2,2-9.5,1.9c-0.3-2-2-1.5-3.2-1.9C-357.7-70.6-360.1-70.8-361.2-73.3z"/>
	<path id="Path_19" class="st1" d="M-563.1,54.4c-0.8,1.5-1.4,3.1-3.4,3.3c-1.5-0.7-0.3-2.3-1.1-3.3c-0.3,0.1-0.7,0.2-0.9,0.4
		c-1.4,1.8,0.4,3.1,0.9,4.6l-0.2,0.7l0-0.1c-0.3-0.6-1.8,1.3-1.5-0.7c0.1-0.7-0.1-1.6-0.7-1.7c-1,0-0.7,1.2-1.3,1.7
		c0.3-1.9-0.6-3.9,0.6-5.6c0.9-1.4,1.3-3,1.2-4.6c0-1.7-0.9-3.5,0.6-5c0.4-0.3-0.3-0.9-0.6-1.3c-0.8-1-0.1-1.8,0.4-2.8
		c0.9,1.2,2,2.1,3.3,2.8c1.3,0.8,2.5,1.8,3.4,2.9c0.7,1,0.7,3.1,2.9,1.6c0.2-0.1,2.7,1.2,1.6,2.6c-1.2,1.6-0.5,2.2,0.9,2.9
		c-1.6,0.7-2.8,1-3.2-0.9c-0.1-0.3,0.1-0.7-0.4-0.7c-0.4,0-0.8,0.4-0.8,0.8c0,0,0,0,0,0C-561.3,53.7-562.3,54-563.1,54.4
		c-0.9-0.8,0.3-1.3,0.4-2c0.1-1.4,1-2.9-0.8-3.9c-0.1-0.2-0.3-0.2-0.4,0c-1.4,0.3,0.3,1.7-0.8,2.1c-0.2-0.6-0.8-0.7-1.3-0.9l0.5-1.2
		c2-0.2,0-1.1,0.2-1.6c0.1-0.2,0.3-1.4-0.7-0.7c-0.1,0.1-0.1,0.4-0.1,0.7l-0.9-0.2c-0.4-0.4-0.8-0.5-0.6,0.2
		c0.1,0.5-0.8,1.7,0.8,1.4c0.2,0.5-0.1,1.3,0.6,1.6c-0.2,0.6,0.4,1.8-1.2,1.4c-0.9-0.3-1,0.5-1,1.2c-0.4,0-0.5,0.3-0.6,0.6
		c-0.4,0.1-0.6,0.5-0.5,0.9c0,0,0,0.1,0,0.1c-0.3,0.1-0.6,0.3-0.3,0.6c0.2-0.1,0.3-0.2,0.5-0.4c0.4-0.1,0.6-0.5,0.5-0.9l0.5-0.6
		c0.5,1.1,1.1,1.2,1.9,0.3c1.1,0.8-0.1,2.2,0.8,3.1C-564.2,56.2-564.5,54.2-563.1,54.4z"/>
	<path id="Path_20" class="st1" d="M-544.1,32.3c-0.3,1.6-1,3.1-2.1,4.4c-1.1-0.9-0.4-2-0.4-3c0-0.6,0.4-1.3-0.2-1.6
		c-0.8-0.4-1.3,0.4-1.9,0.7c-0.6,0.3-1.5,1-1.1,1.4c1.7,1.9,0.3,3.2-0.5,4.8c-0.2,0.4-0.6,1.2,0,1.2c1.7-0.1,0.5,1.4,1.1,1.8
		l0.1-0.1c-0.2-0.2-0.5-0.2-0.6,0c-0.1,0.1-0.1,0.1-0.1,0.2c-0.3-0.7-1.2-1-1.9-0.6c0,0-0.1,0-0.1,0.1c-2,1.4-3.6,3.4-4.5,5.7
		c-1.2-2-1.4-4.4-0.6-6.5c0.3-0.7,1.1-1.3,0.8-2.2l-0.1,0c0.6,0.2,0.6-0.2,0.5-0.6l-0.1,0c2.5-2.5,4.7-5.2,6.7-8.1l-0.1,0l0.6-0.7
		l0.2,0l0.1-0.1c0.1,0.4,0.2,0.8,0.2,1.2c0,0.6,0.1,1,0.8,1c0.8,0,0.6-0.6,0.6-1.1c0-0.9-0.1-1.8-0.2-2.8c-0.6-2.3,0-4.7,1.6-6.4
		c0.6-0.1,0.6,1.2,1.5,0.8l0.1-0.1c0.1,0.8,0.6,0.9,1.3,1l0,0c0.3,0.5,0.6,1.1,1.3,0.5l-0.1,0c0.4,1.5,0.5,3,0.1,4.5
		c-1.2-1.5-2.1-1.9-2.3,0.6c0,0.2-0.4,0.4-0.7,0.6c-0.5-1.4-1.1-2.9,0.7-4.1c-1-0.1-1.3-1.1-2.3-0.9
		C-545.7,28.7-545.4,30.7-544.1,32.3z M-551,35l-0.5,0.6c-0.2,0.2-0.7,0.3-0.3,0.8l0,0c-0.7-0.4-0.7,0.3-0.9,0.6
		c-0.9,0.2-0.5,1.2-1,1.7c-1.7,1.2-2.8,3.1-3,5.1c1-1.5,2.9-2.4,3.5-4.3l-0.1,0c0.5,0.2,0.7,0,0.6-0.6l-0.1,0
		c0.5,0.2,0.6-0.2,0.7-0.6c1.2-0.3,0.8-1.1,0.6-1.8l0.3-0.6c0.3,0,0.5-0.2,0.5-0.5c0,0,0,0,0,0c0.2-0.2,0.6-0.3,0.3-0.7
		C-550.6,34.4-550.8,34.8-551,35L-551,35z"/>
	<path id="Path_21" class="st1" d="M-582,68.5c2.8,0.2,5.6,0,8.4-0.6c-2.9-1.2-3.9-5.1-8-2.5c0.6-1.5,1.4-2.9,2.5-4
		c1-1.2,2.3-0.9,3.4-0.1c1.6,1.1,3,2.4,4.6,3.5c1.8,1.2,3.9,2,6,2.4c0.8,0.1,2.4-0.5,2.2,0.7c0,1.5-1.2,2.7-2.6,2.9
		c-2.3,0.2-4.5,0.3-6.8,0.5c-1.3,0.1-2.7,0.2-4,0.3c0.1-1.5-0.8-1.7-2-1.9C-579.5,69.5-581.1,70-582,68.5z"/>
	<path id="Path_22" class="st0" d="M-507.9-82.7l-0.6-1c6.9,0.1,13.7,0.7,20.5,1.6c4.4,0.5,8.8,1.1,13.2,1.9
		c9.6,1.6,19,4.3,27.9,8.1c1.8,0.8,3.6,1.4,5.3,2.2c0.7,0.3,1.6,0.6,1.8,1.6c-0.5,0.7-0.9,0.2-1.3,0c-14.4-6.7-29.8-10.9-45.6-12.3
		C-493.7-81.4-500.8-82-507.9-82.7z"/>
	<path id="Path_23" class="st0" d="M-441.4-0.2c2.5,1,4.8,2.2,5.8,4.9c0.4,0.9,1,1.7,1.9,2.2c3.2,2.5,4.7,6.2,6.5,9.6
		c2,3.8,3.7,7.8,5,11.9c1.1,3.2,1.9,6.4,2.6,9.6c0.3,1.4,0.6,2.2,2.2,1.7c0.5-0.1,1-0.1,1.5,0c1,0,2.5-0.3,2.6,1.1
		c0.1,1.2-1.4,1.2-2.3,1.4c-0.2,0-0.3,0.1-0.5,0.1c-4.1,0.5-4.1,0.5-4.9-3.4c-2.9-14.5-8.8-27.4-19.8-37.5c-0.4-0.3-0.7-0.7-1-1.1
		L-441.4-0.2z"/>
	<path id="Path_24" class="st1" d="M-594.6,67.8c-1.2,1.8-1.6,4.1-4.4,4.7c-3.6,0.7-6.2-1.6-5.5-5.2c0-0.3,0.1-0.7,0.2-1
		c0.6-1.6,0.4-3.8,2.8-4.3c2.4-0.5,4.8,0.5,6.1,2.5c0.4,0.5,0.7,1.1,1,1.7C-594.4,66.8-594.5,67.3-594.6,67.8z M-597,67.9
		c-0.9-1.5-2.7-2.2-4.4-1.8c-0.6,0.1-1.3,0.1-1.3,0.8c-0.1,0.7,0.6,1,1.1,1.2C-600.1,68.9-598.4,68.8-597,67.9L-597,67.9z"/>
	<path id="Path_25" class="st1" d="M-559.8,91.4c-0.1,0.3,1.1,0.9,0.1,0.8c-2.5-0.2-4.9,1-7.5,0.3c-1.8-0.2-3.5,0.4-4.8,1.6
		c-0.8,0.7-1.3,0.8-1.5-0.4c2.4-4.6,5.1-9,8.2-13.2c0.4-0.5,0.8-1.4,1.5-0.9c0.9,0.6-0.2,1.1-0.5,1.6c-0.4,0.8-0.8,1.6-1.1,2.5
		c-1.5,4.2-0.5,6,3.8,7.2C-560.9,91.2-560.3,91.3-559.8,91.4z"/>
	<path id="Path_26" class="st1" d="M-585.6,70.8c-0.8-0.6-1.5-0.7-2.2,0.3c-0.6,0.8-1.4,1.8-2.4,1.4c-1.1-0.4-1.3-1.7-1.3-2.8
		c0-2.5,0.1-5,0.2-7.6c0.3-2.3,0.1-4.7-0.5-7c-0.6-1.8,1.1-2.6,1.4-4.5c0.8,1.3,1.3,2.8,1.2,4.3c0.1,3.6,0,7.2,0.1,10.8
		c0,1-0.3,2.3,0.8,2.7c1,0.3,1.4-0.9,2.1-1.5c0.4-0.4,0.9-0.8,1.5-1.4c0.1,1.1,0.7,2.1,1.7,2.5C-584.8,68-585.7,68.9-585.6,70.8z"/>
	<path id="Path_27" class="st1" d="M-612.2,95.5c-1-0.8-0.6-1.8-0.4-2.7c1.1-4.2,3.6-7.8,7-10.4c1.6-1.2,2.3-3,3.8-4.4
		c-0.1,3.1-1.8,5.1-3.8,7c-1.6,1.4-2.8,3.2-3.3,5.2c-2.4,0.5-2.5,2.4-2.7,4.2l3.1-3.6l3.7-3.5c0.1,0.1,0.2,0.2,0.3,0.2
		c-0.4,1.9-1.4,3.5-2.9,4.7c-1.8,1.5-3.2,3.6-4,5.8C-612.1,97.1-612.8,96.5-612.2,95.5l0.3-0.3l-0.2-0.1L-612.2,95.5z"/>
	<path id="Path_28" class="st1" d="M-597.9,75.4c0,0.4,0,1.1,0,1.9c0,0.4,0.1,0.8,0.6,0.9c2.4,0.4,2.6,0.6,2.2,3.3
		c4.5-0.7,9.2-0.1,13.5-2.1c-4.1,4.9-10.2,2.6-15.1,4.7c-0.5-0.9,0.3-1.5,0.4-2.2c-0.8-0.5-1.3,0.5-2,0.4
		C-598.6,79.9-599.6,77.4-597.9,75.4z"/>
	<path id="Path_29" class="st1" d="M-567.3,59.7c1.9-0.4,3.9-0.6,5.9-0.6c1.4,0.1,2.9-0.5,3.9-1.5h-6.2c1.6-4.1,5.4-0.6,7.4-3
		c0.2,2.3-1.4,3.4-1.3,5.2c0.1,1-0.5-0.2-0.9,0c-2.7,1.3-5.6,1.9-8.6,1.9c2.3,0.9,4.8,0.2,7.4,0.4c-2.8,1.7-5.8,1.1-8.5,1.6l0,0.1
		c-1.1-1.4,1-2.5,0.3-3.8l0,0.1C-567.3,60.4-567.1,60.3-567.3,59.7L-567.3,59.7z"/>
	<path id="Path_30" class="st1" d="M-323.9-103.5l-0.9,2.2c-1.3-0.7-1.3,0.2-1.4,1.1c-1.8,1.2-1.4,3.4-2.4,5c-1.5,2-3.2,3.9-5.1,5.5
		c-0.4,0.5-0.8,1.2-1.6,0.8c-0.5-0.2-1.3-0.8-1-1.3c0.4-0.7,0-1.7,1.2-2.2c2.3-0.8,4.5-1.9,5.2-4.6c0.1-0.3,0.7-0.4,0.2-1
		c-1.5-1.8,0.2-2.4,1.3-3.1c0.7-0.4,1.6-0.6,1.2-1.5c-0.9-2.4,1.1-3,2.5-4C-324.1-105.6-325.6-104.2-323.9-103.5z"/>
	<path id="Path_31" class="st1" d="M-340.7-102.7c2.1,0,2.5-2.2,3.9-3.2c1.1,1.4-0.4,2.7-0.1,4c-0.4,0.4-1.2,0.6-0.3,1.3
		c-0.2-0.1-0.3-0.2-0.5-0.3l-0.2,0.4l0.6-0.1l0.3-1.3c1.3,1.2,0.3,2.1-0.2,3.2c-0.4,0.9-1.7,1.3-1.3,2.5l0.1-0.1
		c-0.7-0.4-0.6,0.1-0.6,0.6l0.1-0.1c-0.6,0.2-1.1,0.4-0.5,1.1l0-0.1c-0.7-0.4-0.6,0.1-0.6,0.6l0.1-0.1c-1,0.1-1.2,0.8-1.1,1.6
		l0.1-0.1c-1.6,0.8-1.5,2.6-2.3,3.8c-2-2.5,1.1-3.6,1.6-5.5c0.3-1.1,1.4-2.1,2.1-3.1c0.2-0.3,0.4-0.8,0-1.1
		c-0.4-0.3-1.1-0.2-1.1,0.1c-0.2,1.7-3,2.2-2.1,4.4c-1.2-1.3-0.8-2.6-0.4-4c0.4-1.2,1.7-1.9,1.7-3.3
		C-340.3-101.4-340.1-101.9-340.7-102.7z"/>
	<path id="Path_32" class="st1" d="M-345.3-85.5c0,0.3,0,0.7-0.1,1c-0.4,1.1-0.3,3.1-1.8,2.9c-1.5-0.3-3.3,1.3-4.5-0.5
		c-0.7-1.1-1-2.5-0.7-3.9c0.1-0.3,0.2-0.6,0.3-0.9c0.7-1.5,0.7-3.7,3.1-3.6C-346.9-90.5-345.3-88-345.3-85.5z M-351-87.2
		c0.6,1.9,1.5,2.8,3.4,2.3C-348-86.4-349.5-87.4-351-87.2L-351-87.2z"/>
	<path id="Path_33" class="st1" d="M-573.4,46c0.7,0.9,1,2.2,0.6,3.3c-0.6,3.8,0.9,7.6,0.1,12.3c-1.5-2.7-3.7-3.3-5.5-4.4
		c-2-1-2.9-3.3-2.2-5.4c0.7,0.9,0.6,2.2,1.9,2.4l0-0.1c0.9,1.6,2.6,1.8,4.3,2.9c-0.8-2.4-2.2-4.5-0.2-6.6c0.4-0.4-0.3-0.9-0.5-1.3
		l0,0c1-0.4,1.5-1.5,1.1-2.4c0-0.1,0-0.1-0.1-0.2l0,0.1C-573.3,46.8-573.4,46.3-573.4,46L-573.4,46z"/>
	<path id="Path_34" class="st0" d="M-361.2-73.3c1.1,2.5,3.5,2.7,5.7,3.3c1.2,0.3,3-0.1,3.2,1.9c-1.8-0.2-1.7,1-1.6,2.2l0,0
		c-1.6-1.8-3.6-1.8-5.7-1.3c-0.8,0.2-1.7,0.1-1.1-1.3c0.1-0.3-0.6-1.2-1.2-1.4c-0.7-0.2-1.3-0.7-1.6-1.4c0.6-1.9-1.5-3.7-0.1-5.6
		C-362.4-76-362.6-74.2-361.2-73.3z"/>
	<path id="Path_35" class="st1" d="M-587.8,54.5c1.1,2.2,2.5,1.8,4.1,0.8c1.2-0.7,1.9-0.2,2.2,1.3c0.4,2.2-1,4.1-0.6,6.3
		c0.3,1.3-4.4,2.8-5.6,1.9c-0.8-0.6-0.3-0.9,0.3-1.5c1.4-1.1,2.6-2.3,3.7-3.7c0.9-1.3,0.3-1.8-0.7-1.6
		C-587.2,58.6-587.4,56.6-587.8,54.5z"/>
	<path id="Path_36" class="st1" d="M-607.3,67c0.2,1.5,2.5,2.7,0.7,4.8l-3.3-4.8c-0.5,2.3,1.1,3.6,2.4,5c2,1.7,2.9,4.4,2.3,7
		c-0.9-3.1-3.4-5-5.2-7.4c-2.1-2.8,0.1-4.8,0.9-7.2C-608.3,65.1-608.5,66.6-607.3,67L-607.3,67z"/>
	<path id="Path_37" class="st1" d="M-339.5-77.8c1,0.2,2.1,0.3,3.2,0.3c-0.4,0.7-0.6,1.3-0.9,1.9c-0.5,1-1.5,2.3-0.3,3.1
		c0.7,0.4,2.2-0.6,2.7-1.5c0.7-1.3,1.9-1.4,3-1.9c0.5-0.3,1.1-0.7,1.5-0.1c0.3,0.6,0.1,1.2-0.4,1.6c-1.9,1.6-3.8,3-5.9,4.3
		c-0.6,0.4-1.5,0.2-1.9-0.4c-0.2-0.3-0.2-0.6-0.2-0.9C-338.4-73.5-338-75.7-339.5-77.8z"/>
	<path id="Path_38" class="st1" d="M-582.3,76.3c-1.4,1.4-2.3,3.6-4.5,1.3c-0.3-0.4-0.7-0.4-1.1,0c-1.1,1.5-2.8,1.5-4.4,1.7
		c0.6,0.1,1.3,0.3,1.6-0.3c0.4-0.7-0.4-0.8-0.7-1c-0.6-0.4-1.2-0.9-0.4-1.5c0.7-0.6,1-2.3,2.4-1.3c1.3,0.9,2.1,0.7,3.4-0.3
		C-584.3,73.6-583.8,76.2-582.3,76.3z"/>
	<path id="Path_39" class="st0" d="M-323.9-103.5c-1.7-0.7-0.2-2.1-0.7-3.1c0.6-1.1,1.6-1.9,1.6-3.2c0-0.7,0.9-1.5,0-2
		c-1.1-0.7-1.1,0.8-1.8,1.2c-0.7-2.6,0-3.6,4.3-5.7c0.1,0.1,0.2,0.4,0.2,0.4c-2.4,2.2-0.8,5.4-1.9,8c-0.4,0.9,0,2.2-1,2.9
		c-0.4,0.2-0.4,0.5-0.2,0.9L-323.9-103.5z"/>
	<path id="Path_40" class="st0" d="M-518.3,8.2c-0.1-1.7,1.5-1.9,2.4-2.5c2.3-1.6,4.8-3,7.2-4.4c2.4-1.4,5-2.6,7.6-3.6
		C-507,0.9-512.7,4.4-518.3,8.2L-518.3,8.2z"/>
	<path id="Path_41" class="st0" d="M-585.6,70.8c-0.2-1.9,0.8-2.8,2.6-2.7l0,0c0,0.9,0.5,0.7,1,0.5v-0.1c0.9,1.5,2.5,1,3.7,1.2
		c1.2,0.2,2.1,0.4,2,1.9c-3.1,0.4-6.1,1.5-9.1-0.3C-585.1,71-585,70.7-585.6,70.8L-585.6,70.8z"/>
	<path id="Path_42" class="st1" d="M-598.2,56.2c1.7-0.7,2.3,1,3.2,1.7c0.7,0.6-0.6,1.1-1,1.6c-0.9,1.3-1.8,0.6-2.7-0.1
		c-0.5-0.4-1-0.8-1.4-0.1c-0.3,0.6,0.4,1.9-1.3,1.3c-1.1-0.4-2.6-0.9-2.8-2c-0.1-0.8,1-1.8,2.1-2.1c0.2,0,0.3,0,0.5,0
		C-600.3,57.1-599.2,57.9-598.2,56.2z"/>
	<path id="Path_43" class="st1" d="M-586.6,51.4c-0.2-1.5,1.3-2.1,2-3.3c-1.5-0.4-2.5-0.1-2.9,1.4c-0.2,0.8-0.9,0.6-1.5,0.5
		c-0.5-0.1-0.6-0.4-0.6-0.9c0-0.6,0.3-0.9,0.9-0.8c1.5,0.2,1-1.4,1.9-1.9c1.7-1.1,3.6-2,5.5-2.7c-1,3.3-1.9,6.4-5.1,7.9
		C-586.4,51.6-586.5,51.5-586.6,51.4z"/>
	<path id="Path_44" class="st1" d="M-614.9,93.3c1.6,4,1,5.3-5.3,10.7c-0.4-2,1.2-2.7,2.3-3.6c0.9-0.6,1.7-1.3,2.5-2.1
		c0.8-1.1,0.7-2.2-1-2.6c-0.5-0.1-1.4,0.7-1.4-0.5c0-1.1,0.7-1.4,1.6-1.5C-615.8,93.5-615.3,93.4-614.9,93.3L-614.9,93.3z"/>
	<path id="Path_45" class="st1" d="M-369.5-84.4l-0.7,1.4c-0.1-0.6-0.1-1.3-1.1-1.1c-1,0.3-2,0.4-3.1,0.6c4.3-3,9.4-4.8,13.7-8.7
		c-0.5,3.4-2.7,4.6-4.7,5.8c0-0.1-0.1-0.1-0.1-0.2c0,0-0.2-0.1-0.2,0c-0.8,0.8-1.4,2-2.9,1.1C-369.1-85.9-369.7-85.2-369.5-84.4z"/>
	<path id="Path_46" class="st1" d="M-578.5,54.1c-0.3-3.4,1.6-6,3.2-8.7c1.4-2.4,2.7-4.8,4.1-7.4c0.2,2.3-0.9,4-1.6,5.7
		c-0.3,0.7-1.3,1.3-0.6,2.3l0-0.1c-0.7-0.3-0.6,0.2-0.6,0.6l0-0.1c-0.8,0.7-1.6,1.3-1,2.6l0,0c-1.9,0.5-1.9,2.3-2.4,3.7
		C-577.6,53.3-577.6,53.9-578.5,54.1L-578.5,54.1z"/>
	<path id="Path_47" class="st1" d="M-353.7-78.9c-0.9,1.8-1.7,2.9-3.2,3.4c1.1,0.9,1.9,0.2,2.8-0.6c0.3,1.3,0.1,2.3-1.3,2.4
		c-1.2,0.1-2.9,1.2-3.5-0.8c-0.2-0.7-1.1-0.6-1-1.2c0.1-1.3-2.2-2-1-3.2c0.9-0.8,1.5,0.9,2.4,1.2C-356.9-77.3-355.6-78.1-353.7-78.9
		z"/>
	<path id="Path_48" class="st1" d="M-551.7,29.7c-2,1.1-3.4,3-4.1,5.1c-1.6-2.3-0.8-3.6,6.9-10.8c0.4,0.9,0.2,1.8-0.4,2.6
		c-0.6,0.5-1.1,1.1-1.4,1.9C-551.1,28.9-551.7,29.2-551.7,29.7L-551.7,29.7z"/>
	<path id="Path_49" class="st1" d="M-371.8-81c0.4,2.5,1.4,4.8,3,6.8c1.8,2.5,1.5,4.8-0.1,7.3c-0.7-1.8-2.5-3.2-1-5.3
		c0.5-0.6-0.4-1.2-0.7-1.7C-371.6-76-372.8-77.9-371.8-81z"/>
	<path id="Path_50" class="st1" d="M-353.9-65.9c1.9-0.7,2.9,0.8,4.3,1.7c-1.5,1.3-2.8,3-4.8,0.9c-0.7-0.7-1.2-0.1-1.7,0.3
		c-1.2,1.3-2.1,0.3-3-0.4c-0.7-0.4-0.7-1,0-1.4c0.9-0.6,1.6-2.1,3.1-0.8C-355.3-65-354.3-64.3-353.9-65.9L-353.9-65.9z"/>
	<path id="Path_51" class="st1" d="M-598.5,89c-0.8,0.9,1.6,1,0.5,2c-0.7,0.7-1.6-0.1-2.3-0.2c-0.9,0-0.3-1.2-0.4-1.8
		c-0.2-3.4-0.3-6.9-0.5-10.3c-0.3-1.2,0.4-2.3,1.5-2.7c0,3.7,0,7.4,0,11.1c0,0.7-0.6,1.8,0.9,1.8C-598.6,88.9-598.6,88.9-598.5,89z"
		/>
	<path id="Path_52" class="st1" d="M-335.1-85.4c0.6-2.5,2.7-3.7,4.5-5.2c1.3-1.1,2.8-2.1,4.4-3.3c0.2,2.3-2,2.7-2.5,4.2l0,0
		c-2.4,0.5-3.2,2.9-4.9,4.3c-0.3,0.3-0.7,0.4-1.1,0.4C-334.9-85.3-335-85.4-335.1-85.4z"/>
	<path id="Path_53" class="st0" d="M-383.9,40.4c0.3,1.7,0,3.4-1,4.9c-0.7,1-1.6,1.8-1.6,3.2c0,0.4-0.3,0.8-0.8,0.8
		c-0.1,0-0.2,0-0.3-0.1c-0.5-0.2-1.4-0.2-1.2-1c0.2-1,0.1-2.6,1.1-2.9C-384.9,44.6-384.7,42.4-383.9,40.4z"/>
	<path id="Path_54" class="st1" d="M-335.7-97.5c0.5-3,0-6.2,2.3-8.7c2.9,2.7,3.3,4.3,1.5,6.4c-0.8-0.5-0.2-1.4-0.6-2
		c-0.4-0.5-0.7-1-1.2-1.7c-1,1.7-0.2,3.5-1,5L-335.7-97.5z"/>
	<path id="Path_55" class="st1" d="M-558.5,30.3c-0.3,4.2,0.4,8.4-1.2,12.5c0-2.8,0.5-5.7-0.2-8.3
		C-560.4,32.4-559.5,31.5-558.5,30.3z"/>
	<path id="Path_56" class="st1" d="M-356.9-79.4c-0.1-1.5-0.3-3-0.4-4.7c-1.2,0.7-2.3,1.6-3.2,2.7c0.2-3.2,2.6-4.9,4.9-6.8
		c-1.6,2.6,0,5.3-0.5,7.8C-356.7-80.4-356.6-79.7-356.9-79.4z"/>
	<path id="Path_57" class="st1" d="M-335.6-82c0.3,2.8,1.5,3.2,5.9,1.9c0,1.4-1,2.6-2.3,2.8c-1.2,0.5-2.6,0.1-3.3-1
		C-335.9-79.3-337.1-80.6-335.6-82L-335.6-82z"/>
	<path id="Path_58" class="st1" d="M-365.9-73.7c1.2,3.4,4.4,6.7-0.6,9.1c-0.9-1.1-0.8-2.7,0.3-3.7c0.2-0.1,0.3-0.3,0.5-0.4
		c0.9-0.7,0.5-1.2,0.2-1.9C-365.8-71.5-366.8-72.2-365.9-73.7z"/>
	<path id="Path_59" class="st1" d="M-363.6-77c-1.5,1.9,0.7,3.7,0.1,5.6c-1.1-1.3-1.7-2.9-1.6-4.6c0-1.2-0.7-1.7-1.5-1
		c-1.5,1.3-1.9,0-2.8-0.5c1.6-1.8,4.1-0.1,5.4-2.5L-363.6-77z"/>
	<path id="Path_60" class="st1" d="M-611,76.1c2.5,0.6,4.1,3.2,3.5,5.7c-0.1,0.4-0.2,0.7-0.4,1.1c-1-2.4-2.7-4.6-4.8-6.2
		c0.3-0.1,0.4-0.5,0.3-0.7c0,0,0,0,0,0l0.4-0.3c0.1,0.5,0.1,1.2,0.4,1.3C-611.1,77.1-611.2,76.4-611,76.1z"/>
	<path id="Path_61" class="st0" d="M-378.4,25.2c0.6-5.4,1.8-10.7,2.5-16.1C-375.4,14.7-377.2,20-378.4,25.2z"/>
	<path id="Path_62" class="st1" d="M-592.7,72.6c1.5,1.4,0.3,2.8-0.6,3.9c-0.5,0.7-1.7,0.3-2.4-0.2c-1.6-1.1-0.9-2.5-0.2-4
		c0.3,1.2,0.6,2.3,1.7,2.3C-592.7,74.6-594.2,72.8-592.7,72.6z"/>
	<path id="Path_63" class="st0" d="M-517.4,74.6c-0.9,0.1-1.3-0.5-1.1-1.2c0.4-1.4-0.4-2.4-0.9-3.5c3.3-0.6,3.4,2,4,4.1l0-0.1
		C-516.1,74.2-516.6,74.7-517.4,74.6z"/>
	<path id="Path_64" class="st1" d="M-350.4-96.3c1,1.1,3.9,1.3,1.8,3.8c-0.7,0.8-1.2,1.3-2.2,0.4c-0.8-0.7-1.8-1.3-0.8-2.6
		C-351.1-95.1-350.4-95.5-350.4-96.3L-350.4-96.3z"/>
	<path id="Path_65" class="st0" d="M-562.5,35.7c0.1,0.9,0,1.7,0.2,1.8c2.2,0.9,0.9,2.8,1.3,4.2c0.2,0.8-0.1,1.2-0.7,1.2
		c-0.6,0-0.8-0.5-0.4-1.1c0.4-0.6-0.1-0.8-0.4-0.9c-2.4-0.7-2.6-1.9-0.9-3.6C-563,36.9-562.7,36.3-562.5,35.7z"/>
	<path id="Path_66" class="st0" d="M-501.6,131.7c-3.3,0.6-6.7,0.4-10-0.5C-508.2,131.2-504.9,130.7-501.6,131.7z"/>
	<path id="Path_67" class="st0" d="M-350.4-96.2c-1.4-0.5-2.3,0.3-3,1.4c-0.2,0.3-0.4,0.7-0.6,1c-0.3,0.8-1.1,1.4-2,1.3
		c-0.4,0-0.9-0.2-0.8-0.7c0.1-0.8,0.6-1.6,1.4-2c1.6-0.9,3.2-1.8,4.7-2.6C-350-97.3-351.2-96.6-350.4-96.2L-350.4-96.2z"/>
	<path id="Path_68" class="st1" d="M-612.4,85.6c-0.7-0.7,0.8-2.4-1.2-2.5c0.1-1.2,1.2-1.6,1.9-2.5c0.2,2.6,1.2,5.2-0.6,7.6
		c-0.8-0.4-0.6-1.1-0.7-1.7L-612.4,85.6z"/>
	<path id="Path_69" class="st0" d="M-560.8,67l-2.6-1l0,0c1.5-0.5,1.8-2.7,3.7-2.7c0.5-0.1,1-0.2,1.4-0.3l0,0
		c0.4,1.4-2.3,2.5-0.5,4.1l0,0C-559.8,65.9-559.8,65.9-560.8,67L-560.8,67z"/>
	<path id="Path_70" class="st1" d="M-575.2,42.4c-0.6,2-1.8,3.7-3.4,4.9c0-0.9,0.7-1.9-0.7-2c-0.6-0.1-0.6-0.9-0.5-1.5
		c0.2-0.7,0.6-0.8,1.3-0.5C-577.4,43.7-576.6,42.6-575.2,42.4z"/>
	<path id="Path_71" class="st1" d="M-553.6,44.7c1.9,2.5-0.1,4.1-1.2,5.9c-0.2,0.4-0.6,0.6-1,0.4c-0.1,0-0.2-0.1-0.2-0.1
		c-0.5-0.2-0.6-0.8-0.4-1.3c0-0.1,0.1-0.2,0.2-0.2c0.3-0.3,0.2-1.1,1.1-0.8c1.2,0.3,1.4,0.1,0.9-1
		C-554.8,46.5-554.5,45.3-553.6,44.7z"/>
	<path id="Path_72" class="st1" d="M-332.8-82.2c1.6-0.5,2.4-2.3,4.2-2.6c-0.3,2.3-1.2,3.2-3.9,4.4
		C-333.3-80.9-332.1-81.7-332.8-82.2L-332.8-82.2z"/>
	<path id="Path_73" class="st0" d="M-433.6,52.5c0,1.3-0.9,2.3-1.2,3.5c-0.2,0.6-0.6,1.2-1.2,0.9c-1.1-0.4-0.2-0.9,0.1-1.3
		c0.4-0.7-0.1-1.3-0.2-1.9c0-1.1,0.1-2,1.4-2.2C-434.2,51.5-433.8,51.9-433.6,52.5z"/>
	<path id="Path_74" class="st0" d="M-345.9-97.5c-1.4,1.3-1.5,1.4-2,0.7c-0.4-0.6-1.8-0.8-1-1.9c0.8-1.1,1.9-0.4,2.9-0.3
		C-345.9-98.5-345.9-98-345.9-97.5z"/>
	<path id="Path_75" class="st1" d="M-345.9-97.5c0-0.5-0.1-1-0.1-1.5c0-0.3,0-0.7,0.1-1c0.2-0.8,0.6-1.5,1.5-1.2
		c1,0.3,0.6,1.7,0.4,1.9c-2,1.5-0.6,3.3-0.5,4.9c0.2,0.7,0.1,1.5-0.3,2.2L-345.9-97.5z"/>
	<path id="Path_76" class="st1" d="M-614.8,93.3c0.3-1.5-0.8-2.7-0.8-4.1c0-0.9-0.2-2.1,0.9-2.7v0c0,1.1,0.3,2.2,0.9,3.1
		C-612.7,91.3-613.6,92.3-614.8,93.3L-614.8,93.3z"/>
	<path id="Path_77" class="st0" d="M-458.9-83.9c-2.4-0.5-4.7-1.6-6.6-3.2C-462.9-86.6-460.4-86.3-458.9-83.9z"/>
	<path id="Path_78" class="st0" d="M-593.1,50.3c0,1.2-0.3,2.4-0.9,3.4c-0.6,1.2-1.4,0.6-2,0.3c-1-0.5-0.3-1.4,0.1-1.8
		C-595.1,51.5-594.2,50.9-593.1,50.3z"/>
	<path id="Path_79" class="st0" d="M-607.3,67.1c0.7-1.9-0.5-3.3-1.6-4.5c-0.7-0.6-0.9-1.7-0.2-2.5c0,0,0,0,0,0
		c0.9,1.2,1.7,2.4,2.4,3.7C-606,64.7-604.6,66.5-607.3,67.1L-607.3,67.1z"/>
	<path id="Path_80" class="st0" d="M-430.5-79.1c-0.5-1.2-0.6-1.9-1-2.6c-0.4-0.8,0.4-1.6,1.1-1.8c0.5-0.1,0.9,0.2,1,0.7
		c0,0.2,0,0.5-0.1,0.6c-0.5,1.1,0.4,1.1,1.1,1.2C-429-80.4-430-80.4-430.5-79.1z"/>
	<path id="Path_81" class="st0" d="M-469.8-90.5c-1-0.2-2.5,0-2.6-1.2c-0.1-1.3,1.4-1.7,2.4-1.8c1.1-0.2,1.8,0.9,1.9,1.9
		C-468-90.6-469-90.6-469.8-90.5z"/>
	<path id="Path_82" class="st1" d="M-343.1-85.6c-0.5-1.7,1.4-1,2.1-2.2c0.1,1.5,0.5,2.5-0.2,3.6c-0.4,0.6,0.3,0.6,0.6,0.8
		c-1.1,0.6-1.6,1.4-0.6,2.5c-0.4-0.3-0.9-0.5-1.4-0.1c0.6-0.8-0.7-1.9,0.4-2.6c-0.3-0.4-0.7-0.3-1-0.1c0-0.5,0-0.9,0-1.4
		c0.3,0.2,0.6,0.3,0.7-0.1C-342.5-85.3-342.7-85.6-343.1-85.6z"/>
	<path id="Path_83" class="st1" d="M-598,73c-1.8,2.4-3.6,1.9-5.3,1.6c-1.1-0.1-1.9-1.1-1.8-2.3c0-0.1,0-0.2,0.1-0.3
		C-603.1,73.8-600.9,73.9-598,73z"/>
	<path id="Path_84" class="st1" d="M-533.5,18.8l-0.1,0.1l0.1,0.1c-1.1-1.4-2.4-2.5-4.9-0.7c0.6-1,0.7-1.2,0.8-1.3
		c0.6-1.2,2.1-1.8,3.4-1.3C-532.3,16.3-534.3,17.9-533.5,18.8z"/>
	<path id="Path_85" class="st0" d="M-343.2-83.5c0.4-0.2,0.7-0.3,1,0.1c-1,0.7,0.2,1.8-0.4,2.6c-0.6,0.9-1.2,2.2-2.4,1.1
		c-1.2-1.1,0-1.8,0.9-2.3C-343.6-82.4-343.9-83.3-343.2-83.5z"/>
	<path id="Path_86" class="st0" d="M-594.6,67.8c0.1-0.5,0.2-1,0.3-1.5c1.4-0.6-0.4-2.5,1.3-3c-0.3,2.4,1.5,4.9-0.4,7.5
		c0-0.9,0-1.6,0-2.3c0-1.3-0.5-0.7-1-0.3c-0.1,0-0.1-0.1-0.2-0.2C-594.6,68-594.6,67.9-594.6,67.8z"/>
	<path id="Path_87" class="st0" d="M-409-43.8c2.3,1.8,4,4.1,5.1,6.7C-405.8-39.2-407.5-41.4-409-43.8L-409-43.8z"/>
	<path id="Path_88" class="st1" d="M-536.1,22.2c-1.5,0.3-2.1,1.8-3.3,2.4c-0.2-1.7-0.2-1.7,3.8-5.1c0,0.9,0,1.5,0,2.2l0-0.1
		C-535.9,21.7-536.2,21.8-536.1,22.2L-536.1,22.2z"/>
	<path id="Path_89" class="st1" d="M-596.8,90.2c-1.2-2.2,1.6-2.7,1.5-4.3c0.3,0,0.7-0.2,0.9,0c0.4,0.3,0.5,0.7,0.3,1.1
		C-594.5,88.4-595.5,89.6-596.8,90.2z"/>
	<path id="Path_90" class="st0" d="M-567.7,59.4c-0.4-1.5-2.2-2.8-0.9-4.6c0.2-0.2,0.6-0.3,0.9-0.4c0.8,1-0.4,2.6,1.1,3.3
		c1,1.1-1.2,1.1-0.8,2l0-0.1C-567.4,59.5-567.5,59.4-567.7,59.4z"/>
	<path id="Path_91" class="st0" d="M-379.7,30.6c-0.5,2.3-1.2,4.6-2.2,6.8C-382.6,36.2-381.4,32.1-379.7,30.6z"/>
	<path id="Path_92" class="st0" d="M-374.3-83.4c1-0.2,2.1-0.3,3.1-0.6c1-0.3,1,0.4,1.1,1.1c-0.9,0.6-2,1-3.1,1.3
		c-0.6,0-1.4,0.4-1.9-0.3C-375.7-82.8-373.9-82.6-374.3-83.4z"/>
	<path id="Path_93" class="st0" d="M-531.6,17.8c-0.5-1.3-0.7-2.8-2.5-3c0.8-1.8,2.7-0.7,3.7-1.9C-531.6,14.3-532,16.1-531.6,17.8
		L-531.6,17.8z"/>
	<path id="Path_94" class="st0" d="M-341.2-80.8c-1-1.1-0.5-1.9,0.6-2.5c2-1,0.9,1.3,1.8,1.7c0.6,0.3,0.3,1-0.1,1.3
		C-339.8-79.8-340.5-80.2-341.2-80.8z"/>
	<path id="Path_95" class="st0" d="M-598.2,56.2c-0.9,1.7-2.1,0.9-3.2,0.3c0-1.6,1.4-1.6,2.4-1.7C-598.3,54.7-597.8,55.3-598.2,56.2
		z"/>
	<path id="Path_96" class="st0" d="M-565.3,37.2c-0.5,0.3-1,0.5-1.5,0.7c-0.7-1.2-1.5-0.9-2.5-0.3c-0.3,0.2-0.6-0.3-0.5-0.6
		c0.2-1,1.1-1.7,2.1-1.8C-566.3,35.1-566.4,36.7-565.3,37.2z"/>
	<path id="Path_97" class="st0" d="M-356.9-79.4c0.3-0.3,0.1-0.9,0.7-1c1.2-1,2-2.5,2.2-4.1l0.9,2.4c-1.7,0.6-1.5,3.3-3.7,3.3
		c-0.1,0-0.2-0.1-0.2-0.1C-356.9-79.1-356.9-79.3-356.9-79.4z"/>
	<path id="Path_98" class="st0" d="M-542.4,22.8L-542.4,22.8c0.2-1.1-0.2-1.5-1.3-1l-0.1,0.1c1.1-0.3-0.2-2.3,1.6-2.2
		c0.1,0.1,0.1,0.2,0.2,0.3c0.9,1,3.3,1.5,0.8,3.3l0.1,0C-541.4,22.6-541.5,21.7-542.4,22.8z"/>
	<path id="Path_99" class="st0" d="M-328.9-108.3c-0.7-2.4,0.8-3.3,2.6-4.3C-325.3-109.7-328.5-110-328.9-108.3z"/>
	<path id="Path_100" class="st1" d="M-563.4,66.1c-1.6-0.9-3.7-0.4-5.2-1.7l0,0c1.7-0.6,3.4,0.1,5-0.2
		C-562.6,64.9-564.1,65.5-563.4,66.1L-563.4,66.1z"/>
	<path id="Path_101" class="st0" d="M-326.2-100.2c0.1-0.8,0.1-1.8,1.4-1.1l0.1,0.2l0.3,0.9c0.3,1.3-0.5,2.5-1.8,2.8V-100.2z"/>
	<path id="Path_102" class="st0" d="M-369.5-84.4c-0.2-0.8,0.4-1.5,0.9-1.2c1.6,0.9,2.1-0.3,2.9-1.1c0,0,0.2,0,0.2,0
		c0,0.1,0.1,0.1,0.1,0.2c0,0.2,0,0.4,0,0.6c-0.5,1.4-2.6,0.9-3,2.4C-369.3-82.8-369.2-83.9-369.5-84.4z"/>
	<path id="Path_103" class="st0" d="M-550.7,28.5c0.3-0.8,0.7-1.4,1.4-1.9c2.1,0.1,1.3,1.4,1,2.4l-0.1,0.1l-0.2,0
		c-0.3-0.3-0.6-0.2-0.8,0.1c-0.1,0.2-0.1,0.4,0.1,0.6l0.1,0c-0.7-0.7-0.9,0.4-1.4,0.4l-0.3-0.5C-550.8,29.3-550.4,28.9-550.7,28.5z"
		/>
	<path id="Path_104" class="st0" d="M-447-80.4c-0.8,1.1-1.6,0.3-2.4,0.2c-1,0-1.8-0.7-1.5-1.5c0.4-1.2,1.3-0.2,2,0.1
		S-447.5-81.2-447-80.4z"/>
	<path id="Path_105" class="st0" d="M-493.2-87.3c0.2,2,2.3,1.2,3.3,2.1c-2.2-0.6-4.4-0.9-6.7-0.8C-495.3-86-494.4-87-493.2-87.3
		L-493.2-87.3z"/>
	<path id="Path_106" class="st1" d="M-368.2-83.4c0.4-1.6,2.5-1,3-2.4c1.2,0.8,0.7,1.5-0.1,2.2l-0.5,0.4
		C-366.6-83.1-367.5-81.8-368.2-83.4z"/>
	<path id="Path_107" class="st0" d="M-371.1,1.1c-1.3-1.6-0.9-3.3-1-4.9c0-0.4,0-0.9,0.6-0.9c0.6,0,0.6,0.5,0.6,0.9
		C-371-2.2-371.1-0.5-371.1,1.1z"/>
	<path id="Path_108" class="st0" d="M-603.5,91.4c1,1,1.8-0.5,2.9-0.1c-0.3,1.4-1.6,2.5-3,2.5l0,0c0-0.4,0.2-0.9-0.3-1.2l-0.2-1.4
		l0,0L-603.5,91.4z"/>
	<path id="Path_109" class="st0" d="M-551.9,41.5c0.7-0.4,1.5-0.2,1.9,0.5c0,0,0,0.1,0.1,0.1c0,0.1,0.1,0.3,0.2,0.4l0-0.1
		c-0.6,0.2-0.7,0.6-0.5,1.1l0-0.1c-0.7,0.1-0.6,0.6-0.5,1.1l0.1,0c-0.9,0.2-1.9,0.6-1.5-1C-552,42.8-552,42.1-551.9,41.5z"/>
	<path id="Path_110" class="st0" d="M-380.5-9l-1-6.2l0.6-0.1l0.7,6.2L-380.5-9z"/>
	<path id="Path_111" class="st0" d="M-573,38.3c0.3,2.7-2.1,2-3.5,3.6C-575.9,39.4-574.2,39.2-573,38.3z"/>
	<path id="Path_112" class="st1" d="M-604.2,91.3c0.1,0.5,0.1,0.9,0.2,1.4c-0.3,0.3-0.9,0.6-0.2,1.1l-0.1-0.1
		c-1.3-0.3-1.2,1.6-2.5,1.5C-607.2,93.2-605.4,92.4-604.2,91.3z"/>
	<path id="Path_113" class="st1" d="M-337.2-92.9c-0.8,0-1.5-1.1-2.4-0.1l-0.4-0.5l0.2-0.9l-0.1,0.1c0.4,0,0.5-0.2,0.6-0.6l0,0.1
		c0.4-0.3,0.7-0.6,0.5-1.1l-0.1,0.1c0.5,0.1,0.6-0.2,0.6-0.6l-0.1,0.1c0.5,0.3,1-1.8,1.4,0c-1.4,1.8-1.4,1.8,0.5,2.2
		c-0.1,0.3-0.1,0.6-0.1,0.9C-336.9-93.3-337.1-93.4-337.2-92.9z"/>
	<path id="Path_114" class="st0" d="M-430.4-62.8l-3.6-2.1c1.7-0.3,2.5,1.2,3.9,1.5L-430.4-62.8z"/>
	<path id="Path_115" class="st0" d="M-556.2,38.4c-0.6-0.1-0.7,0.7-1.4,0.8v-4c0.7,1.2,2.1,1.3,1.8,2.7l0.1,0
		C-556.1,37.9-556.3,38-556.2,38.4L-556.2,38.4z"/>
	<path id="Path_116" class="st0" d="M-365.8-83.3l0.5-0.4c1.9,0.7,0.4,1.8,0.4,2.8C-366.6-81.2-366.1-82.3-365.8-83.3z"/>
	<path id="Path_117" class="st0" d="M-397.8-26.6l2,5l-0.4,0.2l-2.2-4.9L-397.8-26.6z"/>
	<path id="Path_118" class="st1" d="M-520.5,8.1c-0.9-0.1-1.3,1-2.4,0.9c0-1.2,1-2.1,2.1-2.1c0.4-0.1,0.9-0.3,1,0.3
		C-519.7,7.5-520.3,7.8-520.5,8.1L-520.5,8.1z"/>
	<path id="Path_119" class="st1" d="M-359.9-89.3c0-1.1-0.6-2.4,0.9-2.9c0.3-0.1,1.3,0.4,1.4,0.8C-357.5-90-359.3-90.2-359.9-89.3z"
		/>
	<path id="Path_120" class="st0" d="M-347.6-64.2l0.8,0.3c0.3,2.2-2,1.3-2.6,2.4C-349.4-62.7-348.7-63.8-347.6-64.2z"/>
	<path id="Path_121" class="st1" d="M-352.3-91.8c0.5,0,1,0.1,0.9,0.6c-0.1,0.8-0.7,1.5-1.4,1.7c-0.1-0.6-1.2,0.2-1.1-0.9
		C-353.8-91.4-352.9-91.4-352.3-91.8z"/>
	<path id="Path_122" class="st1" d="M-333.5-97c0.3,0.7,1.8-0.5,1.6,0.7c-0.3,1.3-1.7,1.2-2.7,1.5c-0.3-1,0.6-1.4,0.7-2.1
		C-333.7-96.7-333.6-96.8-333.5-97z"/>
	<path id="Path_123" class="st0" d="M-425.6-82.2c-1.3-0.2-2.5-0.9-3.4-1.9c-0.4-0.3-0.4-0.9-0.1-1.3c0.1-0.1,0.1-0.1,0.2-0.2
		c0.4-0.1,0.8,0.1,0.9,0.4c0,0.1,0,0.2,0,0.3C-428-83.1-425.9-83.4-425.6-82.2L-425.6-82.2z"/>
	<path id="Path_124" class="st0" d="M-570.4,72.7c-1.9,0.9-3.9,1.5-5.9,0L-570.4,72.7L-570.4,72.7z"/>
	<path id="Path_125" class="st0" d="M-333.5-97c-0.1,0.2-0.3,0.3-0.5,0.1c-0.4-0.6-1.3,0-1.7-0.7c0.3-0.3,0.6-0.7,0.9-1
		c0.5-0.2,1-0.4,1.7-0.8L-333.5-97z"/>
	<path id="Path_126" class="st0" d="M-336.4-94c-1.9-0.4-1.9-0.4-0.5-2.2C-334.9-95.9-336-94.9-336.4-94z"/>
	<path id="Path_127" class="st1" d="M-592.9,61.3c-0.2,0.7-0.4,1.4-1.3,1.3c-0.6,0-1-0.2-0.8-0.9c0.2-0.6,0.1-1.5,1-1.4
		C-593.5,60.3-592.8,60.4-592.9,61.3z"/>
	<path id="Path_128" class="st1" d="M-328.8-89.7c0.4,0.6,1.3-0.5,1.6,0.4c0.2,0.5,0.3,0.5-1.2,2.3
		C-329.5-87.8-328.1-88.9-328.8-89.7L-328.8-89.7z"/>
	<path id="Path_129" class="st0" d="M-590.2,86l-3.1,1.5C-593.1,85.3-593.1,85.2-590.2,86z"/>
	<path id="Path_130" class="st0" d="M-614.7,86.6L-614.7,86.6c0.5-1.1,1.1-1.9,2.4-0.9l-0.5,0.9C-613.5,86.6-614.1,86.6-614.7,86.6z
		"/>
	<path id="Path_131" class="st1" d="M-580.8,75c2.5-0.5,5.1-0.5,7.6,0.2l-6.9,0.3C-580.3,75.3-580.6,75.1-580.8,75z"/>
	<path id="Path_132" class="st1" d="M-345.3-68c-1.1,1.7-2.2,1.9-3.6,0.1c1.1-0.4,2.3,0.3,3.2-0.5L-345.3-68z"/>
	<path id="Path_133" class="st0" d="M-340.7-102.7c0.6,0.9,0.3,1.3-0.7,1.3c-1.6,0.3-1-1.1-0.8-1.5
		C-341.7-103.9-341.2-102.7-340.7-102.7z"/>
	<path id="Path_134" class="st0" d="M-580.8,75c0.2,0.2,0.5,0.4,0.7,0.5c0,0.7-0.3,1.3-0.9,1.6c-0.4,0.2-0.6-0.2-0.7-0.5
		C-582.2,75.6-580.8,75.7-580.8,75z"/>
	<path id="Path_135" class="st0" d="M-548.6,117l3,2.6c-0.1,0.1-0.2,0.2-0.3,0.3c-1.2-0.6-2.3-1.5-3.1-2.5L-548.6,117z"/>
	<path id="Path_136" class="st1" d="M-332.7-82.3c-0.7-0.1-1.1,1.4-1.8,0.5c-0.8-1.1,0.6-0.7,1-1.1c0.1-0.1,0.1-0.1,0.1-0.2
		c0-0.6-1.4-1.7,0.2-1.6C-331.7-84.5-333.2-83-332.7-82.3L-332.7-82.3z"/>
	<path id="Path_137" class="st0" d="M-611,76.1c-0.2,0.3-0.1,1-0.6,0.8c-0.3-0.1-0.3-0.9-0.4-1.3c0.1-0.4,0.1-1.2,0.6-1.1
		C-610.6,74.7-611,75.6-611,76.1z"/>
	<path id="Path_138" class="st0" d="M-527.1,131.9c-0.5,0.1-1.1,0.2-1.6,0.2c-0.2,0-0.4-0.2-0.8-0.3
		C-528.6,131-527.8,131.7-527.1,131.9z"/>
	<path id="Path_139" class="st0" d="M-577.9,74h-2.7C-578.9,73-578.9,73-577.9,74z"/>
	<path id="Path_140" class="st0" d="M-430.6-85.2c-1.1-0.1-2.1-0.7-2.7-1.7C-431.5-87.3-431.4-85.9-430.6-85.2L-430.6-85.2z"/>
	<path id="Path_141" class="st0" d="M-516.1-84.8c-1.1,0.2-2.2,0.5-3-0.7C-518.2-86.7-518.2-86.7-516.1-84.8z"/>
	<path id="Path_142" class="st0" d="M-366.7-21.7c0.7,0.9,0.8,2.1,0.3,3.1C-367.3-19.4-366.9-20.2-366.7-21.7z"/>
	<path id="Path_143" class="st0" d="M-473.5-87.8c-1.1-0.2-2.2-0.7-3.1-1.4C-475-89.3-473.8-89.6-473.5-87.8L-473.5-87.8z"/>
	<path id="Path_144" class="st1" d="M-506.7,81.4c-0.4,0.7-0.6,1.6-1.8,1.2c-0.1-1.1,0.9-1.4,1.6-1.9L-506.7,81.4z"/>
	<path id="Path_145" class="st0" d="M-424.6-81.7c0.8,0,1.5,0.6,1.7,1.3C-424-80.2-424.4-80.8-424.6-81.7L-424.6-81.7z"/>
	<path id="Path_146" class="st0" d="M-549,117.4c-0.9-0.6-1.7-1.4-2.2-2.3l0.4-0.4c1,0.4,1.8,1.2,2.3,2.2L-549,117.4z"/>
	<path id="Path_147" class="st0" d="M-563.1,32.2c0.3,1.1-0.6,1.4-1,2c-0.1-0.2-0.2-0.4-0.3-0.6C-564.9,32.2-563.3,32.8-563.1,32.2z
		"/>
	<path id="Path_148" class="st0" d="M-551.3,115.1l-2.1-2c1.6-0.1,2,0.8,2.5,1.6L-551.3,115.1z"/>
	<path id="Path_149" class="st0" d="M-473.6-87.7c0.7,0.1,1.2,0.6,1.3,1.3c-0.1,0.2-0.3,0.3-0.6,0.3
		C-473.8-86.4-473.6-87.1-473.6-87.7L-473.6-87.7z"/>
	<path id="Path_150" class="st0" d="M-612.4,75.9c0.1,0.3,0,0.6-0.2,0.7c0,0,0,0,0,0c-1.1-0.6-0.7-1.3-0.1-1.9l0,0L-612.4,75.9z"/>
	<path id="Path_151" class="st0" d="M-337.2-92.9c0-0.5,0.3-0.5,0.6-0.2c0.2,0.4,0.3,0.9-0.1,1.1S-337.3-92.4-337.2-92.9z"/>
	<path id="Path_152" class="st0" d="M-409.9-45.4c0.4,0.5,1,0.8,1,1.6l0,0C-409.7-44.1-410.2-44.5-409.9-45.4L-409.9-45.4z"/>
	<path id="Path_153" class="st1" d="M-341-91.9l0.2-0.9l-0.1,0.1l0.9-0.7l0.4,0.5l-1,1.5L-341-91.9z"/>
	<path id="Path_154" class="st1" d="M-597.5,87.4c-0.1,0.6-0.5,1.2-1,1.6c-0.1-0.1-0.1-0.1-0.2-0.2c-0.2-0.8-0.1-1.4,0.8-1.7
		C-597.8,87.2-597.6,87.3-597.5,87.4z"/>
	<path id="Path_155" class="st0" d="M-415-50.4c-0.6-0.3-1.1-0.8-1.4-1.4C-415.5-51.7-414.7-51.5-415-50.4L-415-50.4z"/>
	<path id="Path_156" class="st0" d="M-385.4,39c0.1,0.1,0.3,0.2,0.3,0.3c0.1,0.3-0.1,0.4-0.4,0.3c-0.1,0-0.2-0.3-0.2-0.4
		C-385.7,39.1-385.5,39-385.4,39z"/>
	<path id="Path_157" class="st0" d="M-520.5,8.1c0.7,0.7,1.5-0.1,2.2,0.1l0,0C-519.1,8.8-519.8,7.9-520.5,8.1L-520.5,8.1z"/>
	<path id="Path_158" class="st1" d="M-597.9,87.1c0.2-0.6,0.6-1,1.1-1.3c0.1,0.6-0.2,1.3-0.8,1.6L-597.9,87.1z"/>
	<path id="Path_159" class="st0" d="M-412-47.4c-0.4-0.2-0.9-0.4-1-1c0.1-0.1,0.2-0.1,0.2-0.2C-412.3-48.3-412-47.8-412-47.4
		L-412-47.4z"/>
	<path id="Path_160" class="st0" d="M-550.5,30.2c-1.1,1.6-1,0.1-1.2-0.5l0,0c0.4,0.5,0.6-0.1,0.9-0.1L-550.5,30.2z"/>
	<path id="Path_161" class="st1" d="M-586.3,51.7c-0.2,0.5-0.4,0.9-1,0.7c-0.2-0.1-0.3-0.4-0.2-0.6c0.2-0.5,0.6-0.4,1-0.3
		C-586.5,51.5-586.4,51.6-586.3,51.7z"/>
	<path id="Path_162" class="st0" d="M-411-46.4c-0.9,0.2-0.8-0.5-1-1l0,0C-411.5-47.4-411-47-411-46.4C-411-46.4-411-46.4-411-46.4
		L-411-46.4z"/>
	<path id="Path_163" class="st0" d="M-343.1-85.6c0.4,0,0.6,0.2,0.5,0.5c-0.1,0.4-0.4,0.3-0.7,0.1
		C-343.5-85.2-343.7-85.5-343.1-85.6z"/>
	<path id="Path_164" class="st0" d="M-413.6-48.8c-0.5-0.2-0.8-0.6-0.9-1.1l0,0c0.9-0.5,1,0.3,1.4,0.7L-413.6-48.8z"/>
	<path id="Path_165" class="st1" d="M-335.6-82c-0.4-0.5-0.4-1.2,0.1-1.6c0,0,0,0,0.1-0.1L-335.6-82L-335.6-82z"/>
	<path id="Path_166" class="st0" d="M-409.9-45.4c-0.9,0.3-1.1-0.2-1-0.9l0,0C-410.4-46.3-410.2-45.9-409.9-45.4L-409.9-45.4z"/>
	<path id="Path_167" class="st1" d="M-472.6,107.3c-0.3,1.1-0.8,0.9-1.4,0.2C-473.5,107.4-473.1,107-472.6,107.3z"/>
	<path id="Path_168" class="st0" d="M-530.5,131.4c0,0.1,0.1,0.3,0.1,0.4c-0.1,0.1-0.2,0.2-0.4,0.2c0-0.1-0.1-0.3-0.1-0.4
		C-530.8,131.5-530.6,131.4-530.5,131.4z"/>
	<path id="Path_169" class="st1" d="M-340.6-91.5c-0.2,0.3-0.3,0.9-0.8,0.5c-0.3-0.3,0-0.7,0.4-0.9L-340.6-91.5z"/>
	<path id="Path_170" class="st0" d="M-424.5-81.7c-0.4,0.1-0.9-0.1-1.1-0.4l0,0C-425.3-82.2-424.8-82-424.5-81.7L-424.5-81.7z"/>
	<path id="Path_171" class="st0" d="M-435.1,76.1c-0.3,0.3-0.8,0.4-1.2,0.1L-435.1,76.1z"/>
	<path id="Path_172" class="st1" d="M-581.9,68.6c-0.5,0.2-1,0.4-1-0.5C-582.6,68.1-582.1,68-581.9,68.6z"/>
	<path id="Path_173" class="st1" d="M-604.7,87.3l0.3-0.8c0.3,0.3,0.3,0.8,0,1c0,0,0,0,0,0C-604.6,87.4-604.6,87.4-604.7,87.3z"/>
	<path id="Path_174" class="st0" d="M-560.7,67.1c0,0.1-0.1,0.1-0.1,0.2c0,0,0.1,0.1,0.1,0.1L-560.7,67.1L-560.7,67.1z"/>
	<path id="Path_175" class="st0" d="M-547.9,108.8c-0.1,0.1-0.1,0.2-0.2,0.2c-0.1-0.1-0.3-0.1-0.4-0.2c0.1-0.1,0.1-0.2,0.2-0.2
		C-548.2,108.7-548,108.7-547.9,108.8z"/>
	<path id="Path_176" class="st0" d="M-547.1,109.7c0,0.1,0,0.1,0,0.1c-0.1,0-0.1,0-0.2,0c-0.2-0.1-0.2-0.2,0-0.3
		C-547.2,109.6-547.1,109.7-547.1,109.7z"/>
	<path id="Path_177" class="st1" d="M-345.7-68.4l0.7-0.5c0.2,0.4,0.2,0.7-0.3,0.9L-345.7-68.4z"/>
	<path id="Path_178" class="st0" d="M-570.4,72.7c0.1-0.4,0.4-0.4,0.7-0.4c0,0,0.1,0.1,0.1,0.2L-570.4,72.7L-570.4,72.7z"/>
	<path id="Path_179" class="st1" d="M-603.5,91.4l-0.7-0.1c-0.1-0.3,0-0.6,0.3-0.8L-603.5,91.4z"/>
	<path id="Path_180" class="st1" d="M-334.8-85.2c-0.1,0.4,0.2,1.2-0.5,0.9c-0.5-0.2,0-0.8,0.2-1.2C-335-85.4-334.9-85.3-334.8-85.2
		z"/>
	<path id="Path_181" class="st0" d="M-542.2,19.7c0.2-0.4,0.7-0.6,0.9-0.2c0.3,0.6-0.4,0.4-0.7,0.5
		C-542.1,19.8-542.1,19.7-542.2,19.7z"/>
	<path id="Path_182" class="st1" d="M-585.6,70.7c0.5,0,0.4,0.3,0.2,0.6L-585.6,70.7z"/>
	<path id="Path_183" class="st0" d="M-612.7,74.7l0.1-0.4C-612.2,74.7-612.6,74.6-612.7,74.7L-612.7,74.7z"/>
	<path id="Path_184" class="st1" d="M-323.4-104.3c-0.2-0.4-0.2-0.7,0.2-0.9L-323.4-104.3z"/>
	<path id="Path_185" class="st1" d="M-324.4-100.2l-0.3-0.9C-324-101.1-324.3-100.6-324.4-100.2z"/>
	<path id="Path_186" class="st0" d="M-430.7-85.2l0.4,0.1C-430.6-84.8-430.6-85-430.7-85.2L-430.7-85.2z"/>
	<path id="Path_187" class="st0" d="M-413-48.4c-0.3,0-0.5-0.2-0.5-0.4c0,0,0,0,0,0l0.4-0.3c0.1,0.2,0.2,0.4,0.3,0.6
		C-412.9-48.5-412.9-48.4-413-48.4z"/>
	<path id="Path_188" class="st1" d="M-605.6,79.5c0.1-0.3,0.3-0.6,0.6-0.4c0.4,0.3,0.1,0.5-0.2,0.7L-605.6,79.5z"/>
	<path id="Path_189" class="st0" d="M-603.7,93.9c-0.3,0.6-0.4-0.4-0.7-0.1l0.1,0.1L-603.7,93.9L-603.7,93.9z"/>
	<path id="Path_190" class="st1" d="M-605.1,79.8c-0.1,0.2-0.4,0.5-0.4,0.5c-0.4-0.2-0.2-0.5,0-0.8L-605.1,79.8z"/>
	<path id="Path_191" class="st0" d="M-414.5-49.9c-0.3,0-0.5-0.2-0.5-0.5c0,0,0,0,0,0l0,0C-414.5-50.6-414.4-50.4-414.5-49.9
		L-414.5-49.9z"/>
	<path id="Path_192" class="st0" d="M-512.5-83.1l0.6,0.1L-512.5-83.1z"/>
	<path id="Path_193" class="st1" d="M-435.6,98l0.5-0.6L-435.6,98z"/>
	<path id="Path_194" class="st1" d="M-555.5,35.4c0.1,0.1,0.1,0.2,0.1,0.3c0,0-0.1,0.1-0.1,0.1c-0.1-0.1-0.1-0.2-0.1-0.3
		C-555.7,35.5-555.6,35.4-555.5,35.4z"/>
	<path id="Path_195" class="st1" d="M-568.2,63.8l-0.3,0.6l0,0C-568.2,64.4-569,63.5-568.2,63.8L-568.2,63.8z"/>
	<path id="Path_196" class="st0" d="M-540.6,121.6l0.1-0.4C-540.1,121.6-540.5,121.6-540.6,121.6L-540.6,121.6z"/>
	<path id="Path_197" class="st0" d="M-597.1,123.1L-597.1,123.1L-597.1,123.1L-597.1,123.1z"/>
	<path id="Path_198" class="st1" d="M-331.4-84.4l-0.1,0.1c0-0.1-0.1-0.1-0.1-0.2s0.1-0.1,0.1-0.1L-331.4-84.4z"/>
	<path id="Path_199" class="st1" d="M-561.1,33.8c0.1,0.1,0.1,0.2,0.1,0.3c0,0-0.1,0.1-0.1,0.2c-0.1-0.1-0.1-0.2-0.1-0.3
		C-561.2,34-561.1,33.9-561.1,33.8z"/>
	<path id="Path_200" class="st1" d="M-419,91.4c-0.1,0.7-0.3,1.2-1.2,1.3c-0.1-0.6,0.4-1.2,1-1.3C-419.1,91.3-419.1,91.3-419,91.4
		L-419,91.4z"/>
	<path id="Path_201" class="st1" d="M-421,93.5l0.3,0.3l-0.5,0.3c0-0.1-0.2-0.3-0.1-0.4C-421.4,93.7-421.2,93.6-421,93.5z"/>
	<path id="Path_202" class="st1" d="M-422.6,95.9l0.1-0.7C-422,95.5-422.5,95.7-422.6,95.9L-422.6,95.9z"/>
	<path id="Path_203" class="st1" d="M-422.6,95.9l-0.1,0.2L-422.6,95.9L-422.6,95.9z"/>
	<path id="Path_204" class="st0" d="M-494.7,92.2l-7,0C-499.4,91.5-497,91.5-494.7,92.2z"/>
	<path id="Path_205" class="st1" d="M-551.6,91.5c-1.2,1.4-3.9,0-3.6,2.8c-1-0.1-0.8-0.9-1.2-1.3c-1.4-1.3-0.3-1.4,0.7-1.5
		C-554.4,91.4-553.1,91.5-551.6,91.5z"/>
	<path id="Path_206" class="st0" d="M-441.8,91.3c0.1-0.4,0.2-0.6,0.6-0.4L-441.8,91.3z"/>
	<path id="Path_207" class="st0" d="M-565.5,51.7c0.1,0.7-0.7,0.7-0.8,1.2c-0.8,0.9-1.5,0.8-2-0.3c-0.1-0.1-0.2-0.2-0.2-0.3
		c0-0.7,0.1-1.4,1-1.2c1.6,0.4,0.9-0.8,1.2-1.4l0.1-0.2l0.2,0.1c0.5,0.3,1.1,0.3,1.3,0.9v-0.1C-565.6,50.5-565.8,51-565.5,51.7z"/>
	<path id="Path_208" class="st0" d="M-566.2,46.8c0-0.2,0-0.6,0.1-0.7c1.1-0.7,0.8,0.5,0.7,0.7c-0.2,0.5,1.8,1.4-0.2,1.6
		C-567.3,48.5-565.6,47.2-566.2,46.8z"/>
	<path id="Path_209" class="st0" d="M-567.1,46.6l0.1,1.6c-1.6,0.3-0.7-0.9-0.8-1.4C-567.9,46.1-567.4,46.1-567.1,46.6z"/>
	<path id="Path_210" class="st0" d="M-563.6,48.5c0.5,1,0,2.1,0,3.1c-0.1-1-0.3-2.1-0.4-3.1C-563.8,48.3-563.7,48.3-563.6,48.5z"/>
	<path id="Path_211" class="st0" d="M-568.8,53.2c0.1,0.4-0.1,0.8-0.5,0.9c-0.1-0.1-0.2-0.2-0.2-0.3c-0.2-0.3,0-0.8,0.4-0.9
		c0,0,0.1,0,0.1,0C-568.9,53-568.8,53.1-568.8,53.2z"/>
	<path id="Path_212" class="st0" d="M-568.2,52.6l-0.5,0.6c-0.1-0.1-0.2-0.2-0.3-0.3c0.1-0.3,0.2-0.6,0.6-0.6
		C-568.4,52.4-568.3,52.5-568.2,52.6z"/>
	<path id="Path_213" class="st0" d="M-569.3,54.1c-0.2,0.1-0.3,0.2-0.5,0.4c-0.3-0.4-0.1-0.5,0.3-0.6C-569.4,54-569.4,54-569.3,54.1
		z"/>
	<path id="Path_214" class="st0" d="M-553.2,39.4c-0.4-0.1-0.8-0.3-0.4-0.8c0.5-0.5,0.1-1.4,1-1.7c0.3-0.2,1,0.1,0.9-0.6l0,0
		c0.1,0.1,0.2,0.1,0.3,0.2c0.2,0.7,0.6,1.5-0.6,1.8c-0.4,0-0.7,0.1-0.7,0.6l0.1,0C-553.1,38.8-553.2,39.1-553.2,39.4L-553.2,39.4z"
		/>
	<path id="Path_215" class="st1" d="M-565.5,51.7c-0.3-0.7-0.1-1.2,0.7-1.2C-564.8,51-564.6,51.7-565.5,51.7z"/>
</g>
</svg>
