<?xml version="1.0" encoding="utf-8"?>
<!-- Generator: Adobe Illustrator 26.3.1, SVG Export Plug-In . SVG Version: 6.00 Build 0)  -->
<svg version="1.1" id="Layer_1" xmlns="http://www.w3.org/2000/svg" xmlns:xlink="http://www.w3.org/1999/xlink" x="0px" y="0px"
	 viewBox="0 0 62 242" style="enable-background:new 0 0 62 242;" xml:space="preserve">
<style type="text/css">
	.st0{fill:#C8C8C8;}
</style>
<g id="Mask_Group_3">
	<path id="Path_3" class="st0" d="M42,9.3L42,9.3c0.1,0.2,0,0.5-0.3,0.6s-0.5,0-0.6-0.3L42,9.3z M44.4,18.6L44.4,18.6
		c-0.1-0.2,0-0.5,0.3-0.6c0.2-0.1,0.5,0,0.6,0.3L44.4,18.6z M48.2,27.6L48.2,27.6c0,0.3-0.1,0.5-0.4,0.6c-0.3,0-0.5-0.1-0.6-0.4
		L48.2,27.6z M49.6,37L49.6,37c0-0.3,0.1-0.5,0.4-0.6c0.3,0,0.5,0.1,0.6,0.4L49.6,37z M52.7,46.2c0,0.3-0.1,0.6-0.4,0.6
		c-0.3,0-0.5-0.1-0.6-0.4L52.7,46.2z M53.5,55.9L53.5,55.9c-0.1-0.3,0.1-0.5,0.4-0.6s0.6,0.1,0.6,0.4L53.5,55.9z M55.9,65.1
		c0.1,0.3-0.1,0.6-0.4,0.6c-0.3,0.1-0.6-0.1-0.6-0.4L55.9,65.1z M56.1,74.9c-0.1-0.2,0.1-0.5,0.4-0.5c0.3-0.1,0.6,0.1,0.6,0.4
		L56.1,74.9z M57.9,84.4c0,0.2-0.2,0.5-0.5,0.5c-0.2,0-0.5-0.2-0.5-0.5H57.9z M57.6,94c0-0.2,0.3-0.5,0.5-0.5c0.2,0,0.5,0.2,0.5,0.5
		H57.6z M59,103.6c0,0.3-0.2,0.5-0.5,0.5c-0.3,0-0.5-0.2-0.5-0.5H59z M58.2,113.2c0-0.3,0.2-0.5,0.5-0.5s0.5,0.2,0.5,0.5H58.2z
		 M59.1,122.8c0,0.3-0.2,0.5-0.5,0.5c-0.3,0-0.5-0.2-0.5-0.5H59.1z M57.9,132.5c0-0.3,0.2-0.5,0.5-0.5s0.5,0.2,0.5,0.5H57.9z
		 M58.5,142c0,0.3-0.2,0.5-0.5,0.5c-0.3,0-0.5-0.2-0.5-0.5H58.5z M56.9,151.7c0-0.3,0.2-0.5,0.5-0.5s0.5,0.2,0.5,0.5H56.9z
		 M57,161.4c-0.1,0.2-0.4,0.5-0.6,0.4s-0.4-0.3-0.4-0.6L57,161.4z M55,170.7L55,170.7c0.1-0.2,0.3-0.4,0.6-0.4
		c0.2,0.1,0.4,0.3,0.4,0.6L55,170.7z M54.8,180.5L54.8,180.5c-0.1,0.2-0.3,0.4-0.6,0.4c-0.2-0.1-0.4-0.3-0.4-0.6L54.8,180.5z
		 M52.4,189.7c0.1-0.3,0.3-0.4,0.6-0.4c0.3,0.1,0.4,0.3,0.4,0.6L52.4,189.7z M51.7,199.4L51.7,199.4c-0.1,0.3-0.3,0.5-0.6,0.4
		s-0.5-0.3-0.4-0.6L51.7,199.4z M48.8,208.7c0.1-0.3,0.3-0.4,0.6-0.4c0.3,0.1,0.4,0.3,0.4,0.6L48.8,208.7z M47.6,218.2L47.6,218.2
		c-0.1,0.3-0.3,0.5-0.6,0.4s-0.5-0.3-0.4-0.6L47.6,218.2z M44.2,227.2c0.1-0.2,0.3-0.4,0.6-0.3c0.2,0.1,0.4,0.3,0.3,0.6L44.2,227.2z
		 M40.1,4.8c0.6,1.4,1.2,2.9,1.8,4.4L41,9.6c-0.6-1.5-1.2-2.9-1.8-4.4L40.1,4.8z M45.4,18.2c1.1,3,2,6.1,2.9,9.2l-1,0.3
		c-0.9-3.1-1.9-6.1-2.9-9.1L45.4,18.2z M50.7,36.8c0.8,3.1,1.5,6.2,2.1,9.4l-1,0.2c-0.7-3.2-1.4-6.3-2.1-9.4L50.7,36.8z M54.5,55.8
		c0.5,3.1,1,6.3,1.4,9.5l-1,0.1c-0.4-3.2-0.9-6.4-1.4-9.5L54.5,55.8z M57.1,74.8c0.3,3.2,0.6,6.4,0.9,9.6l-1,0.1
		c-0.3-3.2-0.6-6.4-0.9-9.6L57.1,74.8z M58.6,94c0.2,3.2,0.3,6.4,0.4,9.6h-1c-0.1-3.2-0.2-6.4-0.4-9.6H58.6z M59.2,113.2
		c0.1,3.2,0,6.4,0,9.6h-1c0-3.2,0-6.4,0-9.6H59.2z M58.9,132.5c-0.1,3.2-0.2,6.4-0.4,9.6l-1-0.1c0.1-3.2,0.3-6.4,0.4-9.6L58.9,132.5
		z M57.9,151.7c-0.2,3.2-0.5,6.4-0.8,9.6l-1-0.1c0.3-3.2,0.6-6.4,0.8-9.6L57.9,151.7z M56,170.7c-0.4,3.3-0.8,6.5-1.2,9.6l-1-0.1
		c0.4-3.1,0.8-6.3,1.2-9.5H56z M53.4,190c-0.6,3.3-1.1,6.4-1.7,9.5l-1-0.2c0.6-3.1,1.2-6.3,1.7-9.5L53.4,190z M49.8,208.9
		c-0.7,3.3-1.4,6.4-2.2,9.4l-1-0.2c0.8-3,1.5-6.2,2.2-9.4L49.8,208.9z M45.1,227.6c-0.5,1.6-0.9,3.1-1.4,4.6l-1-0.3
		c0.5-1.5,0.9-3,1.4-4.6L45.1,227.6z"/>
</g>
</svg>
