<?xml version="1.0" encoding="utf-8"?>
<!-- Generator: Adobe Illustrator 26.3.1, SVG Export Plug-In . SVG Version: 6.00 Build 0)  -->
<svg version="1.1" id="Layer_1" xmlns="http://www.w3.org/2000/svg" xmlns:xlink="http://www.w3.org/1999/xlink" x="0px" y="0px"
	 viewBox="0 0 62 235.7" style="enable-background:new 0 0 62 235.7;" xml:space="preserve">
<style type="text/css">
	.st0{fill:#C8C8C8;}
</style>
<g id="Mask_Group_2" transform="translate(-450 -686)">
	<path id="Path_2" class="st0" d="M508.2,693.4L508.2,693.4c-0.1,0.2,0,0.5,0.3,0.6c0.2,0.1,0.5,0,0.6-0.3L508.2,693.4z
		 M505.8,702.7L505.8,702.7c0.1-0.2,0-0.5-0.3-0.6c-0.2-0.1-0.5,0-0.6,0.3L505.8,702.7z M502,711.7L502,711.7c0,0.3,0.1,0.5,0.4,0.6
		c0.3,0,0.5-0.1,0.6-0.4L502,711.7z M500.5,721.1c0-0.3-0.1-0.6-0.4-0.6s-0.5,0.1-0.6,0.4L500.5,721.1z M497.4,730.3L497.4,730.3
		c0,0.3,0.1,0.5,0.4,0.6c0.3,0,0.5-0.1,0.6-0.4L497.4,730.3z M496.7,740L496.7,740c0.1-0.3-0.1-0.5-0.4-0.6s-0.6,0.1-0.6,0.4
		L496.7,740z M494.3,749.3c-0.1,0.3,0.1,0.6,0.4,0.6c0.3,0.1,0.6-0.1,0.6-0.4L494.3,749.3z M494.1,759c0.1-0.2-0.1-0.5-0.4-0.5
		c-0.3-0.1-0.6,0.1-0.6,0.4L494.1,759z M492.2,768.6c0,0.2,0.2,0.5,0.5,0.5c0.2,0,0.5-0.2,0.5-0.5H492.2z M492.6,778.1
		c0-0.2-0.3-0.5-0.5-0.5s-0.5,0.2-0.5,0.5H492.6z M491.2,787.7c0,0.3,0.2,0.5,0.5,0.5s0.5-0.2,0.5-0.5H491.2z M492,797.3
		c0-0.3-0.2-0.5-0.5-0.5s-0.5,0.2-0.5,0.5H492z M491,807c0,0.3,0.2,0.5,0.5,0.5s0.5-0.2,0.5-0.5H491z M492.3,816.6
		c0-0.3-0.2-0.5-0.5-0.5s-0.5,0.2-0.5,0.5H492.3z M491.7,826.2c0,0.3,0.2,0.5,0.5,0.5s0.5-0.2,0.5-0.5H491.7z M493.3,835.8
		c0-0.3-0.2-0.5-0.5-0.5s-0.5,0.2-0.5,0.5H493.3z M493.1,845.4c0,0.2,0.2,0.4,0.5,0.4s0.5-0.2,0.5-0.5L493.1,845.4z M495.1,854.8
		L495.1,854.8c-0.1-0.2-0.4-0.5-0.6-0.4s-0.4,0.3-0.4,0.6L495.1,854.8z M495.4,864.6c0.1,0.2,0.3,0.4,0.6,0.4
		c0.2-0.1,0.4-0.3,0.4-0.6L495.4,864.6z M497.8,873.9c-0.1-0.3-0.3-0.4-0.6-0.4c-0.3,0.1-0.4,0.3-0.4,0.6L497.8,873.9z M498.4,883.6
		c0.1,0.3,0.3,0.5,0.6,0.4s0.5-0.3,0.4-0.6L498.4,883.6z M501.4,892.8c-0.1-0.3-0.3-0.4-0.6-0.4c-0.3,0.1-0.4,0.3-0.4,0.6
		L501.4,892.8z M502.5,902.3c0.1,0.3,0.3,0.5,0.6,0.4s0.5-0.3,0.4-0.6L502.5,902.3z M506,911.4c-0.1-0.2-0.3-0.4-0.6-0.3
		c-0.2,0.1-0.4,0.3-0.3,0.6L506,911.4z M510,688.9c-0.6,1.4-1.2,2.9-1.8,4.4l0.9,0.4c0.6-1.5,1.2-2.9,1.8-4.4L510,688.9z
		 M504.8,702.3c-1.1,3-2,6.1-2.9,9.2l1,0.3c0.9-3.1,1.9-6.1,2.9-9.1L504.8,702.3z M499.5,721c-0.8,3.1-1.5,6.2-2.1,9.4l1,0.2
		c0.7-3.2,1.4-6.3,2.1-9.4L499.5,721z M495.7,739.9c-0.5,3.1-1,6.3-1.4,9.5l1,0.1c0.4-3.2,0.9-6.4,1.4-9.5L495.7,739.9z
		 M493.1,758.9c-0.4,3.2-0.6,6.4-0.9,9.6l1,0.1c0.3-3.2,0.6-6.4,0.9-9.6L493.1,758.9z M491.6,778.2c-0.2,3.2-0.3,6.4-0.4,9.6h1
		c0.1-3.2,0.2-6.4,0.4-9.6H491.6z M491,797.4c-0.1,3.2,0,6.4,0,9.6h1c0-3.2,0-6.4,0-9.6H491z M491.3,816.7c0.1,3.2,0.2,6.4,0.4,9.6
		l1-0.1c-0.1-3.2-0.3-6.4-0.4-9.6L491.3,816.7z M492.3,835.8c0.2,3.2,0.5,6.4,0.8,9.6l1-0.1c-0.3-3.2-0.6-6.4-0.8-9.6L492.3,835.8z
		 M494.1,854.9c0.4,3.3,0.8,6.5,1.2,9.6l1-0.1c-0.4-3.1-0.8-6.3-1.2-9.5H494.1z M496.8,874.1c0.6,3.3,1.1,6.4,1.7,9.5l1-0.2
		c-0.6-3.1-1.2-6.3-1.7-9.5L496.8,874.1z M500.3,893c0.7,3.3,1.4,6.4,2.2,9.4l1-0.2c-0.8-3-1.5-6.2-2.2-9.4L500.3,893z M505,911.7
		c0.5,1.6,0.9,3.1,1.4,4.6l1-0.3c-0.5-1.5-0.9-3-1.4-4.6L505,911.7z"/>
</g>
</svg>
